<?xml version="1.0" encoding="utf-8"?>
<!-- Generator: Adobe Illustrator 22.0.1, SVG Export Plug-In . SVG Version: 6.00 Build 0)  -->
<svg version="1.1" id="Слой_1" xmlns="http://www.w3.org/2000/svg" xmlns:xlink="http://www.w3.org/1999/xlink" x="0px" y="0px"
	 viewBox="0 0 5630 3935" style="enable-background:new 0 0 5630 3935;" xml:space="preserve">
<style type="text/css">
	.st0{fill:#252525;}
	.st1{fill:#FFFFFF;}
	.st2{fill:#FCFEFF;}
	.st3{fill:#FFFFFF;fill-opacity:0.2;}
	.st4{fill:none;stroke:#FFFFFF;stroke-opacity:0.3;}
</style>
<a xlink:href="https://tc-con.webflow.io/map/more-coffe" target="_blank">
<g id="кофе">
	<path class="st0" d="M4293.3,462h-386.8V290.6h109.9V0.5h276.9V462z"/>
	<path class="st1" d="M4065.3,236.5c-0.8-0.9-1.2-2-1.3-3.1c0-0.4,0-0.9,0-1.3v-11.9c0-4.2,0-8.5,0-12.7c0-0.9,0.2-1.8,0.5-2.7
		c0.3-0.8,0.9-1.5,1.6-2c0.7-0.5,1.5-0.9,2.3-1c0.9-0.1,1.8-0.1,2.6,0.2s1.6,0.8,2.1,1.4v0.1c0.4,0.4,0.6,1.1,1.1,1.1
		c0.6,0,0.9-0.5,1.3-0.8c1.5-1.1,3.3-1.9,5.1-2.2c1.8-0.4,3.8-0.3,5.6,0.1c2.5,0.3,4.7,1.6,6.4,3.5c0.4,0.5,0.8,0.4,1.2,0
		c1.3-1,2.6-1.8,4.1-2.5c2.3-1.1,4.8-1.5,7.3-1.3c2.5,0.3,4.9,1.2,6.9,2.8c1.2,0.9,2.2,2,2.9,3.3c0.7,1.3,1.2,2.7,1.3,4.2
		c0.1,1.1,0.2,2.2,0.2,3.3c0,5,0,10,0,15c0,1.2-0.1,2.4-0.2,3.6c-0.1,1.2-0.7,2.4-1.6,3.2c-0.9,0.9-2.1,1.3-3.3,1.4
		c-1.3,0.1-2.5-0.3-3.5-1s-1.7-1.8-2-3.1c-0.2-0.8-0.2-1.7-0.2-2.5c0-5.2,0-10.4,0-15.5c0.1-0.8,0-1.7-0.2-2.5
		c-0.3-0.9-0.9-1.6-1.6-2.2c-0.7-0.5-1.6-0.8-2.5-0.9c-0.8-0.1-1.6,0-2.4,0.2c-1,0.3-1.9,1-2.6,1.9c-0.6,0.9-0.9,2-0.9,3.1
		c0,5.2,0,10.4,0,15.4c0,0.7,0,1.4,0,2.2c-0.1,1.3-0.7,2.6-1.6,3.5c-1,0.9-2.3,1.4-3.6,1.4s-2.6-0.5-3.6-1.4s-1.6-2.2-1.7-3.5
		c0-0.6,0-1.3,0-1.9v-14.6c0-0.7-0.1-1.4-0.2-2.1c-0.1-0.6-0.3-1.2-0.6-1.7s-0.7-1-1.2-1.4s-1-0.6-1.6-0.8s-1.2-0.2-1.8-0.1
		c-1.1,0-2.1,0.4-3,1c-0.9,0.7-1.4,1.6-1.7,2.7c-0.1,0.6-0.2,1.3-0.1,1.9v15.8c0,1.1-0.2,2.2-0.7,3.2c-0.5,1.1-1.4,1.9-2.4,2.5
		c-1.1,0.5-2.3,0.6-3.4,0.4C4067,237.9,4066,237.3,4065.3,236.5z M4180,214.3c0.9-2.9,2.5-5.6,4.6-7.9c2.7-2.8,6.3-4.6,10.2-5
		c2.4-0.3,4.8-0.1,7,0.6c2.3,0.7,4.4,1.9,6.2,3.4c3.4,2.9,5.5,7,6,11.5c0.2,1.2,0.2,2.4,0,3.6c-0.1,0.7-0.4,1.3-0.9,1.8
		s-1.1,0.8-1.8,1c-0.8,0.2-1.6,0.3-2.5,0.3h-8.1h-9c-0.7,0-0.9,0.3-0.5,0.9c0.5,1.2,1.3,2.2,2.3,3s2.2,1.3,3.5,1.5
		c2,0.4,4.2,0.1,6.1-0.8c1.3-0.6,2.5-1.2,3.8-1.7c1.1-0.6,2.3-0.7,3.5-0.5c0.7,0.2,1.3,0.5,1.8,0.9c0.5,0.5,0.9,1,1.2,1.7
		c0.3,0.6,0.4,1.4,0.3,2c-0.1,0.7-0.3,1.4-0.7,1.9c-0.9,1.3-2.2,2.4-3.7,3.2c-3,1.6-6.4,2.5-9.8,2.6c-2,0.1-3.9,0-5.9-0.4
		c-3.6-0.6-6.9-2.4-9.4-5s-4.1-6-4.6-9.6C4178.9,220.4,4179.1,217.2,4180,214.3z M4191.3,216c1.9,0.1,3.8,0.1,5.6,0.1h1.6
		c1.4,0,2.8,0,4.2,0c0.7,0,0.8-0.1,0.6-0.9c-0.3-1-0.8-2-1.4-2.8c-0.6-0.7-1.3-1.2-2.1-1.6s-1.7-0.6-2.5-0.7c-0.9,0-1.8,0.1-2.6,0.4
		s-1.6,0.8-2.2,1.4c-0.8,0.9-1.5,2-1.9,3.1C4190.4,215.9,4190.4,216,4191.3,216z M4120,224.4c-1-4.3-0.5-8.7,1.2-12.8
		c1.1-2.7,3-5.1,5.3-6.8c2.3-1.8,5.1-2.9,8-3.3c4.4-0.6,8.9,0.5,12.4,3.2c3.6,2.6,6,6.5,6.8,10.9c1.2,5.1,0.3,10.5-2.5,14.9
		c-3.3,5.3-8.1,7.8-16.9,8.1C4130.5,238.7,4121.9,234.2,4120,224.4z M4130.1,220c-0.1,1.9,0.4,3.7,1.4,5.4c0.5,0.9,1.2,1.7,2.1,2.2
		c0.9,0.6,1.9,0.9,2.9,0.9c1,0.1,2.1-0.2,3-0.6c0.9-0.5,1.7-1.1,2.3-2c0.9-1.2,1.5-2.7,1.7-4.2c0.3-1.5,0.2-2.9-0.2-4.4
		c-0.4-1.4-1.1-2.8-2-3.9c-0.6-0.7-1.4-1.3-2.2-1.6c-0.9-0.4-1.8-0.5-2.8-0.5c-0.9,0.1-1.8,0.4-2.6,0.8c-0.8,0.5-1.5,1.2-2,1.9
		C4130.5,215.9,4130,217.9,4130.1,220z M4159.4,237.1c0.9,0.8,2.1,1.2,3.4,1.2c1.2,0,2.4-0.4,3.4-1.2c0.9-0.8,1.6-1.9,1.8-3.1
		c0.1-0.8,0.2-1.7,0.2-2.5c0-2.4,0-5,0-7.2s0-4.5,0-6.7c0-0.7,0.1-1.4,0.5-2.1c0.3-0.6,0.8-1.2,1.4-1.6c0.7-0.5,1.5-0.9,2.3-1.3
		c1.1-0.4,2.3-0.9,3.4-1.3c1-0.3,1.9-0.7,2.7-1.2c0.5-0.3,0.9-0.7,1.2-1.2c0.3-0.5,0.5-1,0.5-1.6c0.1-0.8,0-1.7-0.3-2.5
		s-0.8-1.5-1.4-2.1s-1.4-1-2.2-1.3c-0.8-0.3-1.7-0.3-2.5-0.2c-1.9,0.4-3.6,1.3-5,2.6c-1,0.9-1.1,0.9-1.9-0.2
		c-0.6-0.9-1.5-1.6-2.5-1.9c-1-0.4-2.1-0.4-3.2-0.1c-1,0.2-1.9,0.8-2.6,1.5c-0.7,0.8-1.1,1.7-1.3,2.8c-0.1,0.8-0.2,1.7-0.2,2.5
		c0,3.8,0,7.6,0,11.5c0,3.8,0,7.6,0,11.4c0,0.9,0.1,1.7,0.3,2.6C4157.8,235.2,4158.4,236.3,4159.4,237.1z M4173,261.7
		c0.5-0.7,0.8-1.4,1-2.2c0.1-0.8,0-1.7-0.3-2.4c-0.3-0.8-0.8-1.5-1.4-2s-1.4-0.9-2.2-1c-1-0.1-1.9-0.2-2.9-0.2
		c-1.2,0-1.2-0.1-1.2-1.2c0-0.5,0-1,0-1.6c-0.1-2,0.5-3.2,2.8-3.2c0.9,0,1.8-0.3,2.5-0.9c0.7-0.6,1.2-1.4,1.4-2.3
		c0.2-0.7,0.3-1.4,0.2-2c-0.1-0.7-0.3-1.3-0.7-1.9c-0.4-0.6-0.9-1.1-1.5-1.4c-0.6-0.4-1.3-0.6-1.9-0.7c-1.4-0.3-2.9-0.3-4.3,0
		c-1.6,0.2-3.1,0.8-4.4,1.6c-1.3,0.9-2.4,2-3.2,3.4c-1,1.7-1.5,3.6-1.5,5.6c0,1.3,0,2.6,0,4c0,0.6-0.3,0.9-0.9,0.9h-8.2
		c-1.2,0-1.3-0.1-1.3-1.3c0-0.6,0-1.3,0-1.9c0-2.1,0.4-2.5,2.6-2.7c0.3,0,0.6-0.1,1-0.2c0.8-0.1,1.4-0.5,2-1s0.9-1.2,1.1-2
		c0.3-0.7,0.3-1.4,0.3-2.1c-0.1-0.7-0.3-1.4-0.7-2c-0.4-0.6-0.9-1.1-1.5-1.5s-1.3-0.6-2-0.7c-1.4-0.3-2.9-0.3-4.3,0
		c-2.5,0.3-4.8,1.5-6.5,3.5c-1.6,1.9-2.5,4.4-2.5,6.9c0,1.3,0,2.6,0,4c0,0.8-0.1,0.9-0.9,0.9s-1.7,0.1-2.5,0.3
		c-1,0.3-1.8,0.9-2.4,1.7c-0.6,0.8-0.9,1.8-0.9,2.8s0.3,2,0.9,2.9c0.6,0.8,1.4,1.5,2.4,1.8c0.7,0.2,1.4,0.3,2.1,0.3
		c1.3,0.2,1.3,0.2,1.3,1.4v9.9h0.1c0,3.4,0,6.7,0,10.2c-0.1,1.3,0.3,2.5,1.1,3.5c0.8,1,1.9,1.7,3.1,1.9c1.2,0.2,2.5,0,3.6-0.6
		s1.9-1.7,2.3-2.9c0.4-0.9,0.5-1.9,0.5-2.9c0-3.6,0-7.2,0-10.8c0-2.8,0-5.6,0-8.4c0-1,0.1-1.2,1-1.2c2.8,0,5.6,0,8.4,0
		c0.9,0,1,0.1,1,1.1c0,0.3,0,0.6,0,0.8c0,5.9,0,11.7,0,17.6c0,0.5,0,1.1,0,1.7c0,0.9,0.3,1.7,0.7,2.5c0.4,0.8,1,1.4,1.7,1.9
		c0.8,0.5,1.7,0.8,2.6,0.9s1.9-0.2,2.7-0.6c0.8-0.4,1.5-1.1,2-1.9s0.8-1.7,0.8-2.7c0-1.8,0-3.6,0-5.4c0-4.9,0-9.7,0-14.6
		c0-1.2,0-1.3,1.3-1.3c0.9,0,1.8-0.1,2.6-0.2c0.6-0.1,1.2-0.2,1.8-0.5S4172.6,262.2,4173,261.7z M4220.2,276.2
		c0.5,1.2,1.2,2.2,2.2,3s2.2,1.4,3.4,1.6c2.1,0.4,4.2,0.1,6.1-0.7c1.3-0.6,2.7-1.3,4-1.9c0.8-0.4,1.6-0.6,2.5-0.5s1.7,0.4,2.4,0.9
		c0.9,0.6,1.6,1.6,1.8,2.7s0,2.2-0.6,3.1c-0.6,1-1.5,1.8-2.4,2.5c-2.3,1.6-5,2.6-7.8,3.1c-4.1,0.9-8.4,0.5-12.3-1
		c-2.9-1-5.4-2.8-7.3-5.2c-1.9-2.4-3.1-5.2-3.5-8.3c-0.5-2.7-0.4-5.5,0.3-8.2c0.6-2.7,1.9-5.2,3.6-7.4c1.4-1.8,3.1-3.3,5-4.4
		c2-1.1,4.1-1.8,6.4-2c2.3-0.3,4.7-0.2,7,0.5s4.4,1.8,6.2,3.3c3.4,2.9,5.6,6.9,6.2,11.4c0.3,1.3,0.3,2.6,0,3.9
		c-0.1,0.7-0.5,1.4-1,1.9s-1.2,0.8-1.9,0.9c-0.8,0.1-1.6,0.2-2.4,0.2H4221C4220,275.3,4219.9,275.6,4220.2,276.2z M4220.5,267.9
		c1.9,0,3.8,0,5.6,0c1.9,0,3.8,0,5.8,0c0.7,0,0.8-0.1,0.7-0.7c-0.2-1.2-0.7-2.3-1.6-3.2c-0.9-0.9-1.9-1.5-3.1-1.8
		c-1.3-0.4-2.6-0.4-3.8,0.1c-1.2,0.5-2.3,1.3-3,2.4c-0.5,0.7-0.9,1.4-1.2,2.2C4219.5,267.8,4219.6,267.9,4220.5,267.9z M4183.9,276
		c0.4,1.2,1.2,2.2,2.1,3.1c1,0.8,2.1,1.4,3.3,1.7c2.2,0.5,4.6,0.2,6.6-0.8c1.3-0.6,2.6-1.3,3.9-1.8c0.9-0.5,2-0.6,3-0.4
		s1.9,0.8,2.6,1.7c0.5,0.6,0.9,1.4,0.9,2.3c0.1,0.8-0.1,1.7-0.6,2.4c-0.5,0.8-1.1,1.6-1.9,2.2c-2.5,1.9-5.3,3.1-8.4,3.6
		c-4.5,1-9.1,0.5-13.3-1.3c-2.7-1.1-5-3-6.8-5.3s-2.9-5.1-3.2-8c-0.7-4-0.1-8.1,1.6-11.8c1.2-2.8,3.1-5.2,5.5-7
		c2.4-1.8,5.3-2.9,8.3-3.2c4.5-0.6,9,0.7,12.6,3.4c3.6,2.8,5.9,6.9,6.5,11.4c0.2,1.2,0.2,2.4,0.2,3.6c0,0.9-0.3,1.8-0.9,2.4
		c-0.6,0.7-1.4,1.1-2.3,1.1c-0.7,0.1-1.4,0.2-2.1,0.2h-17.4C4183.9,275.3,4183.7,275.5,4183.9,276z M4184.6,267.9h5.3h5.9
		c0.5,0,0.7-0.3,0.5-0.8c-0.3-1.1-0.8-2.1-1.4-3c-0.6-0.7-1.4-1.3-2.3-1.6s-1.8-0.6-2.7-0.5c-0.9,0-1.9,0.3-2.7,0.7
		c-0.8,0.4-1.6,1-2.2,1.8c-0.5,0.7-0.9,1.4-1.2,2.2C4183.2,267.8,4183.3,267.9,4184.6,267.9z M4128.7,269.2c0.1,0.9,0.1,1.7,0.1,2.6
		c0.2,4.1-1,8.1-3.5,11.4c-1.5,2.2-3.5,3.9-5.8,5.2c-2.3,1.2-4.9,1.9-7.6,1.9c-4.3,0.1-8.4-1.4-11.6-4.2c-3.2-2.8-5.3-6.7-5.8-10.9
		c-0.9-4.8,0.1-9.7,2.6-13.9c1.3-2.1,3.1-4,5.2-5.4s4.5-2.3,7-2.6c4.3-0.5,8.6,0.6,12.1,3.1s6,6.2,6.9,10.4
		C4128.5,267.5,4128.6,268.4,4128.7,269.2z M4118.5,271.9c0-2.4-0.8-4.8-2.4-6.7c-0.6-0.7-1.3-1.2-2-1.5c-0.8-0.4-1.6-0.5-2.5-0.5
		l0,0c-1.2-0.1-2.5,0.3-3.5,1.1c-1,0.8-1.8,1.7-2.3,2.8c-0.8,1.6-1.1,3.4-1,5.3c0.1,1.8,0.7,3.6,1.6,5.1c0.5,0.8,1.1,1.5,1.9,2
		s1.7,0.8,2.6,0.9s1.9,0,2.7-0.3c0.9-0.3,1.6-0.8,2.3-1.5C4117.5,276.7,4118.4,274.3,4118.5,271.9z M4092.2,279.5
		c-0.6-0.6-1.4-1-2.3-1.1c-1-0.2-2,0-2.9,0.5c-1,0.5-2,0.8-3,1.1c-0.9,0.2-1.9,0.3-2.8,0.2c-0.9-0.1-1.9-0.4-2.7-0.9
		s-1.6-1.1-2.1-1.9c-0.6-0.8-1-1.6-1.3-2.6c-0.4-1.5-0.5-3-0.3-4.5c0.1-1.6,0.6-3.1,1.6-4.4c0.6-0.8,1.3-1.5,2.2-2s1.9-0.8,2.9-0.8
		c1.4-0.1,2.7,0.1,4,0.6c0.7,0.3,1.6,0.6,2.5,0.9s1.9,0.3,2.8,0c0.9-0.3,1.6-0.9,2.1-1.7c0.4-0.6,0.6-1.2,0.8-1.9
		c0.1-0.7,0.1-1.4-0.1-2.1c-0.3-0.9-0.7-1.8-1.4-2.5c-0.6-0.7-1.4-1.3-2.3-1.6c-4-1.8-8.6-2.2-12.8-1c-3.1,0.7-5.9,2.3-8.1,4.6
		c-2.2,2.3-3.7,5.2-4.3,8.3c-0.6,2.9-0.7,5.9-0.3,8.9c0.5,4.1,2.6,7.9,5.7,10.6c3.1,2.7,7.2,4.2,11.3,4.1c3,0.1,6-0.6,8.7-1.9
		c1-0.5,1.8-1.1,2.6-1.9c0.6-0.6,1-1.4,1.2-2.3c0.2-0.8,0.1-1.7-0.1-2.5C4093.3,280.8,4092.9,280.1,4092.2,279.5z"/>
</g>
</a>
<g id="золота_країна">
	<path class="st0" d="M3906.5,488.5h637v387h-637V488.5z"/>
	<path class="st1" d="M4253.9,722.6l0.4-0.1v1.3c0,0-0.4,0.1-1.1,0.3l0,0c-0.1,0.6-0.2,2.5-0.2,4.5c0,0.4,0,0.8,0,1.3
		c0,2.4,0,4.7,0,6.9c0.1,2.9,0.1,6.3,0.2,7.2l0,0c0.7,0.1,1.1,0.3,1.1,0.3v1.3l-0.4-0.1c-1-0.2-2-0.3-3-0.4c-1,0-2,0.2-3,0.4
		l-0.4,0.1v-1.3c0,0,0.4-0.1,1.1-0.3l0,0c0.1-0.9,0.1-4.3,0.2-7.2c0-2.3,0-4.6,0-6.9c0-0.6,0-1.2,0-1.7c-0.1-1.9-0.2-3.5-0.2-4.1
		l0,0c-0.7-0.1-1.1-0.3-1.1-0.3v-1.3l0.4,0.1c1,0.2,2,0.3,3,0.4C4251.8,722.9,4252.9,722.8,4253.9,722.6z M4209.9,744
		c0.6,0.1,1,0.2,1,0.2v1.3l-0.4-0.1c-1-0.2-2-0.3-3-0.4c-1,0-2,0.2-3,0.4l-0.4,0.1v-1.3c0,0,0.2-0.1,0.7-0.2l-2.9-6.7h-8.8l-1.9,6.6
		v0.1h0.3c0.7,0.1,1.1,0.3,1.1,0.3v1.3l-0.4-0.1c-1-0.2-2-0.3-3-0.4c-1,0-2,0.2-3,0.4l-0.4,0.1v-1.3c0,0,0.4-0.1,1.1-0.3h0.2
		c0.4-0.8,9.7-20.5,9.7-20.5c-0.1,0-1.1,0-1.1,0v-1h4.6L4209.9,744L4209.9,744z M4200.9,735.4l-4-8.7l-3.3,8.7H4200.9z M4375,744
		c0.6,0.1,1,0.2,1,0.2v1.3l-0.4-0.1c-1-0.2-2-0.3-3-0.4c-1,0-2.1,0.2-3,0.4l-0.4,0.1v-1.3c0,0,0.2-0.1,0.7-0.2l-2.9-6.7h-8.8
		l-1.9,6.6v0.1h0.3c0.7,0.1,1.1,0.3,1.1,0.3v1.3l-0.4-0.1c-1-0.2-2-0.3-3-0.4c-1,0-2,0.2-3,0.4l-0.4,0.1v-1.3c0,0,0.4-0.1,1.1-0.3
		h0.2c0.4-0.8,9.7-20.5,9.7-20.5c-0.1,0-1.1,0-1.1,0v-1h4.6L4375,744L4375,744z M4366,735.4l-4-8.7l-3.3,8.7H4366z M4087.3,737.1
		c-1.5-1.7-5.1-5.5-5.1-5.5l9.4-7.9l1-0.2c0,0,0-0.6,0-1c-2.9,0.3-4.3,0.3-7,0c0,0.5,0,1.1,0,1.1s0.6,0.1,0.9,0.1
		c-1.6,3.2-5.1,6.3-7.9,8.8c0-0.9,0-1.8,0-2.7c0-0.5,0-0.9,0-1.3c0.1-2,0.2-3.9,0.2-4.5l0,0c0.7-0.1,1.1-0.3,1.1-0.3v-1.3l-0.4,0.1
		c-1,0.2-2,0.3-3,0.4c-1,0-2-0.2-3-0.4l-0.4-0.1v1.3c0,0,0.4,0.1,1.1,0.3l0,0c0.1,0.6,0.2,2.3,0.3,4.1c0,0.5,0,1.1,0,1.7
		c0,2.4,0,4.7-0.1,6.9c-0.1,2.9-0.1,6.3-0.2,7.2l0,0c-0.7,0.1-1.1,0.3-1.1,0.3v1.3l0.4-0.1c1-0.2,2-0.3,3-0.4c1,0,2.1,0.2,3,0.4
		l0.4,0.1v-1.3c0,0-0.4-0.1-1.1-0.3l0,0c-0.1-0.9-0.1-4.3-0.2-7.2c0-0.7,0-1.5,0-2.2c0.4,0.3,0.8,0.6,1.2,1c1.7,1.7,3.3,3.5,5,5.2
		c1.3,1.3,2.7,2.8,4.5,3.6c3.6,1.5,5.4,1.2,7,1.2v-1.3C4091.8,743.9,4089.7,739.7,4087.3,737.1z M4153.1,727.1
		c0.4,0.9,0.5,1.8,0.5,2.7c-0.1,1-0.3,1.8-0.7,2.4c-0.2,0.3-0.6,0.8-1.1,1.5c-0.2,0.2-1.1,1.2-2.6,1.9c0,0-1.8,1-4.5,1.2
		c-1.9,0.1-2.8,0-4-0.3c-0.5-0.2-1.4-0.3-2.1-0.7c0,0.3,0,0.7,0,1c0,2.9,0.1,6.3,0.2,7.2l0,0c0.7,0.1,1.1,0.3,1.1,0.3v1.3l-0.4-0.1
		c-1-0.2-2-0.3-3-0.4c-1,0-2,0.2-3,0.4l-0.4,0.1v-1.3c0,0,0.4-0.1,1.1-0.3l0,0c0.1-0.9,0.1-4.3,0.2-7.2c0-2.3,0.1-4.6,0.1-6.9
		c0-0.6,0-1.2,0-1.7c-0.1-1.9-0.2-3.5-0.2-4.1l0,0c-0.7-0.1-1.1-0.3-1.1-0.3v-1.3h0.6c2.2,0,8.5,0,10.7,0c1.5,0,2.9,0.2,4,0.6
		c1.2,0.4,2.1,0.9,2.9,1.6C4152.1,725.4,4152.7,726.2,4153.1,727.1z M4148.6,729.8c0-6-7.4-5.7-9.7-5.4c-0.1,0.9-0.1,2.4-0.2,4
		c0,0.4,0,0.8,0,1.3c0,1.5,0,2.9,0,4.3C4141.1,735,4148.6,735.8,4148.6,729.8z M4313.2,722.9c-1,0-2-0.2-3-0.4l-0.4-0.1v1.3
		c0,0,0.4,0.1,1.1,0.3l0,0c0.1,0.6,0.2,2.3,0.2,4.1c0,0.5,0,1.1,0,1.7c0,1.1,0,2.1,0,3.2h-11.5c0-1.1,0-2.1,0-3.2c0-0.5,0-0.9,0-1.3
		c0.1-2,0.2-3.9,0.3-4.5l0,0c0.7-0.1,1.1-0.3,1.1-0.3v-1.3l-0.4,0.1c-1,0.2-2,0.3-3,0.4c-1,0-2-0.2-3-0.4l-0.4-0.1v1.3
		c0,0,0.4,0.1,1.1,0.3l0,0c0.1,0.6,0.2,2.3,0.3,4.1c0,0.5,0,1.1,0,1.7c0,2.3,0,4.7-0.1,6.9c0,2.9-0.1,6.3-0.2,7.2l0,0
		c-0.7,0.1-1.1,0.3-1.1,0.3v1.3l0.4-0.1c1-0.2,2-0.3,3-0.4c1,0,2,0.2,3,0.4l0.4,0.1v-1.3c0,0-0.4-0.1-1.1-0.3l0,0
		c-0.1-0.9-0.1-4.3-0.2-7.2c0-0.6,0-1.2,0-1.8h11.4c0,0.6,0,1.2,0,1.8c-0.1,2.9-0.1,6.3-0.2,7.2l0,0c-0.7,0.1-1.1,0.3-1.1,0.3v1.3
		l0.4-0.1c1-0.2,2-0.3,3-0.4c1,0,2,0.2,3,0.4l0.4,0.1v-1.3c0,0-0.4-0.1-1.1-0.3l0,0c-0.1-0.9-0.1-4.3-0.2-7.2c0-2.3,0-4.6,0-6.9
		c0-0.5,0-0.9,0-1.3c0.1-2,0.2-3.9,0.2-4.5l0,0c0.7-0.1,1.1-0.3,1.1-0.3v-1.3l-0.4,0.1C4315.3,722.8,4314.2,722.9,4313.2,722.9z
		 M4198.9,630.9h-12.8v3c0,0,2.7,0,2.9,0c0,0-26.6,61.8-26.8,62.2c-1.3,0.5-2.6,0.9-2.6,0.9v3.5l2.6-0.7c5-1.1,8.1-1.3,12.3-0.8
		l2.5,0.3v-3l-2.8-0.7l16.5-50.8l21,51.4c-1.6,0.4-2.7,0.7-2.7,0.7v3.5l2.4-0.6c5.4-1.2,9.8-1.2,14-0.7l3.4,0.4v-2.9
		c0,0-1-0.2-2.8-0.7L4198.9,630.9z M4080.8,679.1c0-13-15.6-16.7-15.6-16.7s12.3-3.7,12.2-16.2c0-16.6-20.5-16.6-26.6-16.6
		s-17.1,2.1-23,4.8c-0.1-0.3-0.6-1.3-0.6-1.3l-2.8,1.1c0,0,2.8,4.7,4.3,12.5c2.5-0.6,3-0.7,3-0.7l-0.3-1.6c2-2.4,7.8-9,18.3-9
		s13.7,5.7,13.7,11.5c0,5.9-4.3,12.8-22.1,12.8c0,4.8,0,2.6,0,5.8c18.6,0,25.6,3.6,25.6,15.1c0,9.2-9.6,14.1-17.1,14.1
		c-7.8,0-16.7-5-19.1-12c-4.5,2.8-9.7,6.1-9.7,6.1s8.1,12.1,28.5,12.1C4068,700.8,4080.8,693.4,4080.8,679.1z M4164.7,665.1
		c0,19.7-18,35.6-40.1,35.6s-40.1-16-40.1-35.6c0-19.7,18-35.6,40.1-35.6C4146.8,629.5,4164.7,645.5,4164.7,665.1z M4150.6,665.1
		c0-16.2-11.6-29.4-25.9-29.4s-25.9,13.2-25.9,29.4s11.6,29.4,25.9,29.4S4150.6,681.4,4150.6,665.1z M4265.8,700.8
		c-22.1,0-40.1-16-40.1-35.6c0-19.7,17.9-35.6,40.1-35.6c22.1,0,40.1,16,40.1,35.6S4287.9,700.8,4265.8,700.8z M4291.7,665.1
		c0-16.2-11.6-29.4-25.9-29.4s-25.9,13.2-25.9,29.4s11.6,29.4,25.9,29.4S4291.7,681.4,4291.7,665.1z M4342.2,696.3
		c-0.2-2.6-0.4-12.1-0.5-20.3c-0.1-6.3-0.2-12.8-0.2-19.3c0-11.4,0-18.2,0.1-19.7h2c6.7,0.1,12.2,1,16.4,2.8c0,1.2,0,2.2,0,2.2h3.1
		c0,0,0-0.5,0.4-4.3c0.3-2.9,0.8-7.9,0.8-7.9h-3c0,0-0.2,0.6-0.2,0.9c-1.2,0.1-20,0.4-25.6,0.5c-5.6-0.1-24.4-0.4-25.6-0.5
		c-0.1-0.3-0.2-0.9-0.2-0.9h-3c0,0,0.5,5.1,0.8,7.9c0.4,3.8,0.4,4.3,0.4,4.3h3.1c0,0,0-1.1,0-2.2c4.2-1.7,9.8-2.6,16.4-2.8h2
		c0.1,1.4,0.1,8.3,0.1,19.7c0,6.6-0.1,13-0.2,19.3c-0.1,8.2-0.3,17.6-0.5,20.3l0,0c-2,0.4-3,0.7-3,0.7v3.5l1.2-0.2
		c2.7-0.6,5.6-0.9,8.4-1c2.8,0.1,5.7,0.4,8.4,1l1.2,0.2V697C4345.2,697,4344.2,696.7,4342.2,696.3L4342.2,696.3z M4428,696.7v2.9
		l-3.4-0.4c-4.2-0.5-8.6-0.5-14,0.7l-2.4,0.6V697c0,0,1.2-0.3,2.7-0.7l-8.4-20.5h-22.7l-6.5,19.9l2.8,0.7v3l-2.5-0.3
		c-4.2-0.5-7.3-0.3-12.3,0.8l-2.6,0.7V697c0,0,1.2-0.4,2.5-0.9c0.2-0.4,26.8-62.2,26.8-62.2c-0.2,0-2.9,0-2.9,0v-3h12.8l27.3,65
		C4427,696.4,4428,696.7,4428,696.7z M4400.1,669.9l-10.2-25l-8.1,25H4400.1z"/>
</g>
<g id="алло">
	<path class="st0" d="M3906.5,2545.5h985v457h-985V2545.5z"/>
	<path class="st2" d="M4597.1,2712.1c-33.1,0-60.4,27.2-60.4,60.3s27.3,60.3,60.4,60.3s60.4-27.2,60.4-60.3
		C4657.5,2739.4,4630.2,2712.1,4597.1,2712.1z M4597.1,2810c-20.8,0-37.7-16.9-37.7-37.6s16.9-37.6,37.7-37.6
		c20.8,0,37.7,16.8,37.7,37.6S4617.9,2810,4597.1,2810z M4597.1,2754.3c-9.8,0-18.2,7.8-18.2,18.1c0,9.7,8.5,18.2,18.2,18.2
		s18.2-7.8,18.2-18.2C4615.3,2762.7,4606.9,2754.3,4597.1,2754.3z M4374.9,2832.7c1.3,0,2.6,0,3.9-0.6c6.5-1.9,9.7-8.4,7.8-14.9
		c0-0.6-24.7-76.5-25.3-79.7v-0.6c-5.9-14.9-20.2-25.3-36.4-25.3c-16.3,0-31.2,10.4-36.4,25.3c-1.3,3.2-24.7,76.5-26,79.1
		c-1.9,6.5,1.3,13,7.8,14.9s13-1.3,14.9-7.8c8.5-25.9,24.7-75.2,26-79.1c1.9-5.8,7.8-9.7,14.3-9.7s11.7,3.9,14.3,9.7
		c1.3,4.5,17.5,55.1,25.4,79.1C4365.1,2829.4,4369.6,2832.7,4374.9,2832.7z M4514.6,2832.7c1.3,0,2.6,0,3.9-0.6
		c6.5-1.9,9.8-8.4,7.8-14.9c0-0.6-24.7-76.5-25.3-79.7v-0.6c-5.9-14.9-20.1-25.3-36.4-25.3s-31.2,10.4-36.4,25.3
		c-1.3,3.2-24.7,76.5-26,79.7c-2,6.5,1.3,13,7.8,14.9s13-1.3,15-7.8c8.4-25.9,24.7-75.2,26-79.1c2-5.8,7.8-9.7,14.3-9.7
		s11.7,3.9,14.3,9.7c1.3,4.5,17.5,55.1,25.3,79.1C4504.8,2829.4,4510,2832.7,4514.6,2832.7z M4239.7,2730.9
		c-7.8-14.3-24.1-20.7-40.3-18.1c-3.9,0.6-40.9,5.8-48.7,7.1c-6.5,0.6-11,7.1-9.8,13.6c1.3,6.5,7.1,11,13.6,9.7
		c20.1-3.9,44.8-6.5,48.1-7.1c6.5-0.6,12.3,0.7,15.6,5.8c1.3,1.9,2,4.5,2,7.1v5.2c-7.8,1.3-18.2,3.2-27.3,4.5l-16.3,2.6
		c-20.1,3.2-39,10.4-39.6,38.9c0,20.7,16.9,31.8,33.8,31.8c3.9,0,5.9,0,6.5,0h44.8c11.1,0,20.8-9.7,20.8-20.7V2764c0,0,0,0,0-0.6
		v-14.9C4244.2,2743.3,4242.9,2736.8,4239.7,2730.9z M4220.2,2807.4c0,0.7-0.7,1.9-2,1.9h-46.1c-5.8,0-11-4.5-11-11
		c0-5.2,3.9-11,9.1-11.7l49.4-7.8C4220.2,2778.9,4220.2,2807.4,4220.2,2807.4z"/>
</g>
<g id="soon">
	<path class="st0" d="M3906.5,2207.5h985v325h-985V2207.5z"/>
	<path class="st3" d="M4283.7,2380.2c1.8,3,2.7,6.7,2.7,11.1c0,5-1.3,9.6-3.9,13.6c-2.6,4.1-6.4,7.3-11.5,9.7
		c-5,2.4-11.1,3.6-18.2,3.6c-6.7,0-12.4-1.1-17.3-3.2c-4.9-2.1-8.7-5.1-11.5-9c-2.8-3.8-4.3-8.3-4.7-13.4h11.6
		c0.3,3.5,1.5,6.4,3.5,8.7c2.1,2.3,4.7,4,7.9,5.1c3.2,1.1,6.7,1.6,10.4,1.6c4.3,0,8.2-0.7,11.6-2.1c3.4-1.4,6.1-3.4,8.1-5.9
		c2-2.6,3-5.5,3-8.9c0-3.1-0.9-5.6-2.6-7.6c-1.7-1.9-4-3.5-6.8-4.7s-5.9-2.3-9.1-3.2l-11.5-3.3c-7.3-2.1-13-5.1-17.3-9
		c-4.2-3.9-6.4-9-6.4-15.2c0-5.2,1.4-9.8,4.2-13.6c2.8-3.9,6.7-6.9,11.5-9.1c4.8-2.2,10.2-3.3,16.1-3.3c6,0,11.3,1.1,16,3.2
		c4.7,2.1,8.4,5,11.1,8.7c2.8,3.7,4.2,7.9,4.4,12.6h-10.9c-0.5-4.6-2.8-8.2-6.6-10.7c-3.9-2.6-8.6-3.8-14.3-3.8
		c-4.1,0-7.7,0.7-10.8,2c-3.1,1.3-5.5,3.2-7.2,5.5s-2.5,5-2.5,8c0,2.5,0.6,4.6,1.8,6.4c1.2,1.8,2.8,3.2,4.6,4.4
		c1.9,1.2,3.8,2.1,5.9,2.9c2.1,0.7,4,1.3,5.7,1.8l9.5,2.5c2.4,0.6,5.1,1.5,8.1,2.6s5.9,2.6,8.6,4.6
		C4279.6,2374.7,4281.9,2377.2,4283.7,2380.2z M4378.1,2344.5c3.5,7.1,5.3,15.6,5.3,25.5c0,9.8-1.8,18.3-5.3,25.4
		c-3.5,7.2-8.4,12.7-14.6,16.6c-6.2,3.9-13.2,5.8-21.2,5.8s-15-1.9-21.2-5.8c-6.2-3.9-11-9.4-14.6-16.6c-3.6-7.1-5.3-15.6-5.3-25.4
		c0-9.8,1.8-18.3,5.3-25.5c3.5-7.1,8.4-12.7,14.6-16.5c6.2-3.9,13.2-5.8,21.2-5.8s15,1.9,21.2,5.8
		C4369.7,2331.8,4374.6,2337.4,4378.1,2344.5z M4372.5,2370c0-8.1-1.3-14.9-4-20.4c-2.7-5.6-6.3-9.8-10.9-12.6
		c-4.5-2.8-9.6-4.3-15.3-4.3c-5.6,0-10.7,1.4-15.3,4.3c-4.5,2.8-8.2,7-10.9,12.6c-2.7,5.5-4,12.3-4,20.4c0,8.1,1.3,14.9,4,20.4
		s6.3,9.8,10.9,12.6s9.7,4.3,15.3,4.3c5.6,0,10.7-1.4,15.3-4.3c4.6-2.8,8.2-7.1,10.9-12.6C4371.2,2384.8,4372.5,2378,4372.5,2370z
		 M4475.6,2344.5c3.5,7.1,5.3,15.6,5.3,25.5c0,9.8-1.8,18.3-5.3,25.4c-3.5,7.2-8.4,12.7-14.6,16.6c-6.2,3.9-13.2,5.8-21.2,5.8
		s-15-1.9-21.2-5.8c-6.2-3.9-11-9.4-14.6-16.6c-3.6-7.1-5.3-15.6-5.3-25.4c0-9.8,1.8-18.3,5.3-25.5c3.5-7.1,8.4-12.7,14.6-16.5
		c6.2-3.9,13.2-5.8,21.2-5.8s15,1.9,21.2,5.8C4467.2,2331.8,4472.1,2337.4,4475.6,2344.5z M4470,2370c0-8.1-1.3-14.9-4-20.4
		c-2.7-5.6-6.3-9.8-10.9-12.6c-4.5-2.8-9.6-4.3-15.3-4.3c-5.6,0-10.7,1.4-15.3,4.3c-4.5,2.8-8.2,7-10.9,12.6c-2.7,5.5-4,12.3-4,20.4
		c0,8.1,1.3,14.9,4,20.4s6.3,9.8,10.9,12.6s9.7,4.3,15.3,4.3c5.6,0,10.7-1.4,15.3-4.3c4.6-2.8,8.2-7.1,10.9-12.6
		C4468.7,2384.8,4470,2378,4470,2370z M4562.6,2323.4v73.3h-0.9l-50.9-73.3h-10.9v93.1h11.3v-73.1h0.9l50.7,73.1h10.9v-93.1H4562.6z
		"/>
</g>
<g id="soon_1_">
	<path class="st0" d="M3906.5,888.5h637v325h-637V888.5z"/>
	<path class="st3" d="M4109.7,1061.2c1.8,3,2.7,6.7,2.7,11c0,5-1.3,9.6-3.9,13.6c-2.6,4.1-6.4,7.3-11.5,9.7
		c-5,2.4-11.1,3.6-18.2,3.6c-6.7,0-12.4-1.1-17.3-3.2c-4.8-2.2-8.7-5.2-11.5-9c-2.8-3.9-4.3-8.3-4.7-13.4h11.6
		c0.3,3.5,1.5,6.4,3.5,8.7c2.1,2.3,4.7,4,7.9,5.1s6.7,1.6,10.4,1.6c4.3,0,8.2-0.7,11.6-2.1c3.4-1.4,6.1-3.4,8.1-5.9s3-5.5,3-8.9
		c0-3.1-0.9-5.6-2.6-7.6c-1.7-1.9-4-3.5-6.8-4.7s-5.9-2.3-9.1-3.2l-11.5-3.3c-7.3-2.1-13-5.1-17.3-9c-4.2-3.9-6.4-8.9-6.4-15.2
		c0-5.2,1.4-9.8,4.2-13.6c2.8-3.9,6.7-6.9,11.4-9.1c4.8-2.2,10.2-3.3,16.1-3.3c6,0,11.3,1.1,16,3.2c4.7,2.1,8.4,5,11.1,8.7
		c2.8,3.7,4.2,7.9,4.4,12.6H4100c-0.5-4.6-2.8-8.2-6.6-10.7c-3.9-2.6-8.6-3.8-14.3-3.8c-4.1,0-7.7,0.7-10.8,2s-5.4,3.2-7.2,5.5
		c-1.7,2.3-2.5,5-2.5,7.9c0,2.5,0.6,4.6,1.8,6.4s2.8,3.2,4.6,4.4c1.9,1.1,3.8,2.1,5.9,2.9c2.1,0.7,3.9,1.3,5.7,1.8l9.4,2.5
		c2.4,0.6,5.1,1.5,8.1,2.6c3,1.1,5.9,2.6,8.6,4.6C4105.6,1055.7,4107.9,1058.2,4109.7,1061.2z M4204.1,1025.5
		c3.5,7.1,5.3,15.6,5.3,25.5c0,9.8-1.8,18.3-5.3,25.5c-3.5,7.1-8.4,12.7-14.6,16.5c-6.2,3.9-13.2,5.8-21.2,5.8s-15-1.9-21.2-5.8
		s-11-9.4-14.6-16.5c-3.6-7.2-5.3-15.6-5.3-25.5c0-9.8,1.8-18.3,5.3-25.5c3.5-7.1,8.4-12.7,14.6-16.5c6.2-3.9,13.2-5.8,21.2-5.8
		s15,1.9,21.2,5.8C4195.7,1012.8,4200.6,1018.4,4204.1,1025.5z M4198.5,1051c0-8.1-1.3-14.9-4-20.4c-2.7-5.6-6.3-9.8-10.9-12.6
		c-4.5-2.9-9.6-4.3-15.3-4.3c-5.6,0-10.7,1.4-15.3,4.3c-4.5,2.8-8.2,7-10.9,12.6c-2.7,5.5-4,12.3-4,20.4s1.3,14.9,4,20.4
		c2.7,5.6,6.3,9.8,10.9,12.6c4.6,2.8,9.7,4.3,15.3,4.3c5.6,0,10.7-1.4,15.3-4.3c4.6-2.9,8.2-7,10.9-12.6
		C4197.2,1065.8,4198.5,1059,4198.5,1051z M4301.6,1025.5c3.5,7.1,5.3,15.6,5.3,25.5c0,9.8-1.8,18.3-5.3,25.5
		c-3.5,7.1-8.4,12.7-14.6,16.5c-6.2,3.9-13.2,5.8-21.2,5.8s-15-1.9-21.2-5.8s-11-9.4-14.6-16.5c-3.6-7.2-5.3-15.6-5.3-25.5
		c0-9.8,1.8-18.3,5.3-25.5c3.5-7.1,8.4-12.7,14.6-16.5c6.2-3.9,13.2-5.8,21.2-5.8s15,1.9,21.2,5.8
		C4293.2,1012.8,4298.1,1018.4,4301.6,1025.5z M4296,1051c0-8.1-1.3-14.9-4-20.4c-2.7-5.6-6.3-9.8-10.9-12.6
		c-4.5-2.9-9.6-4.3-15.3-4.3c-5.6,0-10.7,1.4-15.3,4.3c-4.5,2.8-8.2,7-10.9,12.6c-2.7,5.5-4,12.3-4,20.4s1.3,14.9,4,20.4
		c2.7,5.6,6.3,9.8,10.9,12.6c4.6,2.8,9.7,4.3,15.3,4.3c5.6,0,10.7-1.4,15.3-4.3c4.6-2.9,8.2-7,10.9-12.6
		C4294.7,1065.8,4296,1059,4296,1051z M4388.6,1004.4v73.3h-0.9l-50.9-73.3h-10.9v93.1h11.3v-73.1h0.9l50.7,73.1h10.9v-93.1
		L4388.6,1004.4L4388.6,1004.4z"/>
</g>
<g id="soon_2_">
	<path class="st0" d="M4666.5,0.5h690v629h-690V0.5z"/>
	<path class="st3" d="M4896.7,301.2c1.8,3,2.7,6.7,2.7,11c0,5-1.3,9.6-3.9,13.6c-2.6,4.1-6.4,7.3-11.5,9.7c-5,2.4-11.1,3.6-18.2,3.6
		c-6.7,0-12.4-1.1-17.3-3.2c-4.9-2.2-8.7-5.2-11.5-9s-4.3-8.3-4.7-13.4h11.6c0.3,3.5,1.5,6.4,3.5,8.7c2.1,2.3,4.7,4,7.9,5.1
		c3.2,1.1,6.7,1.6,10.4,1.6c4.3,0,8.2-0.7,11.6-2.1s6.1-3.4,8.1-5.9s3-5.5,3-8.9c0-3.1-0.9-5.6-2.6-7.5s-4-3.5-6.8-4.7
		s-5.9-2.3-9.1-3.2l-11.5-3.3c-7.3-2.1-13-5.1-17.3-9c-4.2-3.9-6.4-9-6.4-15.2c0-5.2,1.4-9.8,4.2-13.6c2.8-3.9,6.7-6.9,11.5-9.1
		c4.8-2.2,10.2-3.3,16.1-3.3c6,0,11.3,1.1,16,3.2c4.7,2.1,8.4,5,11.1,8.7c2.8,3.7,4.2,7.9,4.4,12.6h-10.9c-0.5-4.6-2.8-8.2-6.6-10.7
		c-3.9-2.5-8.6-3.8-14.3-3.8c-4.1,0-7.7,0.7-10.8,2c-3.1,1.3-5.5,3.2-7.2,5.5s-2.5,5-2.5,8c0,2.5,0.6,4.6,1.8,6.4
		c1.2,1.8,2.8,3.2,4.6,4.4c1.9,1.2,3.8,2.1,5.9,2.9c2.1,0.7,4,1.3,5.7,1.8l9.5,2.5c2.4,0.6,5.1,1.5,8.1,2.6s5.9,2.7,8.6,4.6
		C4892.6,295.7,4894.9,298.2,4896.7,301.2z M4991.1,265.5c3.5,7.2,5.3,15.6,5.3,25.5c0,9.8-1.8,18.3-5.3,25.5s-8.4,12.7-14.6,16.5
		c-6.2,3.9-13.2,5.8-21.2,5.8s-15-1.9-21.2-5.8s-11-9.4-14.6-16.5c-3.6-7.2-5.3-15.6-5.3-25.5c0-9.8,1.8-18.3,5.3-25.5
		s8.4-12.7,14.6-16.5c6.2-3.9,13.2-5.8,21.2-5.8s15,1.9,21.2,5.8C4982.7,252.8,4987.6,258.3,4991.1,265.5z M4985.5,291
		c0-8.1-1.3-14.9-4-20.4s-6.3-9.7-10.9-12.6c-4.5-2.8-9.6-4.3-15.3-4.3c-5.6,0-10.7,1.4-15.3,4.3c-4.5,2.8-8.2,7-10.9,12.6
		c-2.7,5.5-4,12.3-4,20.4s1.3,14.9,4,20.4s6.3,9.7,10.9,12.6c4.6,2.8,9.7,4.3,15.3,4.3c5.6,0,10.7-1.4,15.3-4.3
		c4.6-2.8,8.2-7,10.9-12.6C4984.2,305.8,4985.5,299,4985.5,291z M5088.6,265.5c3.5,7.2,5.3,15.6,5.3,25.5c0,9.8-1.8,18.3-5.3,25.5
		s-8.4,12.7-14.6,16.5c-6.2,3.9-13.2,5.8-21.2,5.8s-15-1.9-21.2-5.8s-11-9.4-14.6-16.5c-3.6-7.2-5.3-15.6-5.3-25.5
		c0-9.8,1.8-18.3,5.3-25.5s8.4-12.7,14.6-16.5c6.2-3.9,13.2-5.8,21.2-5.8s15,1.9,21.2,5.8C5080.2,252.8,5085.1,258.3,5088.6,265.5z
		 M5083,291c0-8.1-1.3-14.9-4-20.4s-6.3-9.7-10.9-12.6c-4.5-2.8-9.6-4.3-15.3-4.3c-5.6,0-10.7,1.4-15.3,4.3
		c-4.5,2.8-8.2,7-10.9,12.6c-2.7,5.5-4,12.3-4,20.4s1.3,14.9,4,20.4s6.3,9.7,10.9,12.6c4.6,2.8,9.7,4.3,15.3,4.3
		c5.6,0,10.7-1.4,15.3-4.3c4.6-2.8,8.2-7,10.9-12.6C5081.7,305.8,5083,299,5083,291z M5175.6,244.4v73.3h-0.9l-50.9-73.3h-10.9v93.1
		h11.3v-73.1h0.9l50.7,73.1h10.9v-93.1H5175.6z"/>
</g>
<g id="soon_3_">
	<path class="st0" d="M4943.5,2294.5h686v1236h-686V2294.5z"/>
	<path class="st3" d="M5162.2,2888.7c-0.5-4.6-2.8-8.2-6.6-10.7c-3.9-2.6-8.6-3.8-14.3-3.8c-4.1,0-7.7,0.7-10.8,2
		c-3.1,1.3-5.5,3.2-7.2,5.5s-2.5,5-2.5,8c0,2.5,0.6,4.6,1.8,6.4c1.2,1.8,2.8,3.2,4.6,4.4c1.9,1.2,3.8,2.1,5.9,2.9
		c2.1,0.7,4,1.3,5.7,1.8l9.5,2.5c2.4,0.6,5.1,1.5,8.1,2.6s5.9,2.6,8.6,4.6c2.8,1.9,5,4.4,6.8,7.4s2.7,6.7,2.7,11.1
		c0,5-1.3,9.6-3.9,13.6c-2.6,4.1-6.4,7.3-11.5,9.7c-5,2.4-11.1,3.6-18.2,3.6c-6.7,0-12.4-1.1-17.3-3.2c-4.9-2.1-8.7-5.1-11.5-9
		c-2.8-3.8-4.3-8.3-4.7-13.4h11.6c0.3,3.5,1.5,6.4,3.5,8.7c2.1,2.3,4.7,4,7.9,5.1c3.2,1.1,6.7,1.6,10.4,1.6c4.3,0,8.2-0.7,11.6-2.1
		c3.4-1.4,6.1-3.4,8.1-5.9c2-2.6,3-5.5,3-8.9c0-3.1-0.9-5.6-2.6-7.6c-1.7-1.9-4-3.5-6.8-4.7s-5.9-2.3-9.1-3.2l-11.5-3.3
		c-7.3-2.1-13-5.1-17.3-9c-4.2-3.9-6.4-9-6.4-15.2c0-5.2,1.4-9.8,4.2-13.6c2.8-3.9,6.7-6.9,11.5-9.1c4.8-2.2,10.2-3.3,16.1-3.3
		c6,0,11.3,1.1,16,3.2c4.7,2.1,8.4,5,11.1,8.7c2.8,3.7,4.2,7.9,4.4,12.6L5162.2,2888.7L5162.2,2888.7z M5271.4,2912
		c0,9.8-1.8,18.3-5.3,25.4c-3.5,7.2-8.4,12.7-14.6,16.6c-6.2,3.9-13.2,5.8-21.2,5.8s-15-1.9-21.2-5.8c-6.2-3.9-11-9.4-14.6-16.6
		c-3.6-7.1-5.3-15.6-5.3-25.4c0-9.8,1.8-18.3,5.3-25.5c3.5-7.1,8.4-12.7,14.6-16.5c6.2-3.9,13.2-5.8,21.2-5.8s15,1.9,21.2,5.8
		c6.2,3.9,11.1,9.4,14.6,16.5C5269.7,2893.6,5271.4,2902.1,5271.4,2912z M5260.5,2912c0-8.1-1.3-14.9-4-20.4
		c-2.7-5.6-6.3-9.8-10.9-12.6c-4.5-2.8-9.6-4.3-15.3-4.3c-5.6,0-10.7,1.4-15.3,4.3c-4.5,2.8-8.2,7-10.9,12.6c-2.7,5.5-4,12.3-4,20.4
		c0,8.1,1.3,14.9,4,20.4s6.3,9.8,10.9,12.6s9.7,4.3,15.3,4.3c5.6,0,10.7-1.4,15.3-4.3c4.6-2.8,8.2-7.1,10.9-12.6
		C5259.2,2926.8,5260.5,2920,5260.5,2912z M5368.9,2912c0,9.8-1.8,18.3-5.3,25.4c-3.5,7.2-8.4,12.7-14.6,16.6
		c-6.2,3.9-13.2,5.8-21.2,5.8s-15-1.9-21.2-5.8c-6.2-3.9-11-9.4-14.6-16.6c-3.6-7.1-5.3-15.6-5.3-25.4c0-9.8,1.8-18.3,5.3-25.5
		c3.5-7.1,8.4-12.7,14.6-16.5c6.2-3.9,13.2-5.8,21.2-5.8s15,1.9,21.2,5.8c6.2,3.9,11.1,9.4,14.6,16.5
		C5367.2,2893.6,5368.9,2902.1,5368.9,2912z M5358,2912c0-8.1-1.3-14.9-4-20.4c-2.7-5.6-6.3-9.8-10.9-12.6
		c-4.5-2.8-9.6-4.3-15.3-4.3c-5.6,0-10.7,1.4-15.3,4.3c-4.5,2.8-8.2,7-10.9,12.6c-2.7,5.5-4,12.3-4,20.4c0,8.1,1.3,14.9,4,20.4
		s6.3,9.8,10.9,12.6s9.7,4.3,15.3,4.3c5.6,0,10.7-1.4,15.3-4.3c4.6-2.8,8.2-7.1,10.9-12.6C5356.7,2926.8,5358,2920,5358,2912z
		 M5461.7,2865.4v93.1h-10.9l-50.7-73.1h-0.9v73.1h-11.3v-93.1h10.9l50.9,73.3h0.9v-73.3H5461.7z"/>
</g>
<g id="зоомама">
	<path class="st0" d="M3906.5,1385.5h637v325h-637V1385.5z"/>
	<path class="st1" d="M4300.9,1486.4c0.1,6.2-0.7,12.3-2.2,18.3c-1.5,5.7-3.6,11.1-6.2,16.3c-3.9,7.7-8.8,14.8-14.4,21.4
		c-5,6-10.5,11.5-16.3,16.6c-5.4,4.8-10.9,9.2-16.8,13.4c-7.2,5.2-14.8,10-22.7,14.1c-1,0.5-1.2,0.4-1.3-0.7
		c-0.1-1.8-0.3-3.5-0.4-5.3c-0.1-1.3-0.2-2.7-0.3-4c-0.2-2.4-0.4-4.9-0.5-7.3c-0.1-1.1-0.6-1.5-1.6-1.5c-0.9,0-1.9-0.1-2.8-0.3
		c-1.3-0.2-2.5-0.5-3.7-0.9c-4.4-1.5-7.9-4-10.4-7.5c-1.2-1.6-2.1-3.5-2.9-5.5c-1.1-2.9-1.1-6-1.5-9c-0.1-0.9,0.1-1.3,1.1-1.6
		c2.3-0.5,4.7-0.9,6.9-2c1.6-0.8,2.8-1.9,3.5-3.4c3-5.7,7.9-9,13.8-11c1-0.4,1.7-0.8,2.1-1.9c1.4-3.6,2.9-7.2,4.4-10.7
		c0.1-0.3,0.2-0.5,0.3-0.6c0.3-0.5,0.6-0.3,1.2,0.4c4.8,5.9,9.6,11.9,14.4,17.8c3.4,4.2,6.8,8.5,10.2,12.7c0.4,0.5,0.3,1.2-0.1,1.6
		c-1.4,1.3-2.8,2.6-4.3,3.8c-0.5,0.4-1.3,0.4-1.7-0.2c-0.5-0.6-0.9-1.1-1.4-1.7c-3-3.8-6.1-7.5-9.1-11.3c-2.1-2.6-4.2-5.1-6.3-7.7
		c-0.1-0.2-0.2-0.3-0.4-0.7c-0.1,0.3-0.3,0.6-0.4,0.8c-0.4,1-0.8,1.7-1,2.5c-0.3,0.8-0.8,1.2-1.7,1.5c-2.6,0.8-5.2,1.8-7.7,3
		c-0.2,0.1-0.4,0.2-0.6,0.3c-1.7,1-3.1,2.4-4.1,4.1c-0.3,0.4-0.5,0.8-0.7,1.2c-2.1,3.7-5.1,6.2-9.1,7.6c-0.7,0.2-0.9,0.5-0.6,1.2
		c0.4,1.1,0.8,2.1,1.3,2.9c2,3.5,5.3,5.5,9.6,6.3c2.1,0.4,4.2,0.4,6.2,0.3c0.9,0,1.7-0.1,2.6-0.2c1.5-0.1,1.7,0,1.8,1.4
		c0,2,0.2,4,0.4,6c0.1,1.7,0.3,3.4,0.3,5.1c0.1,2,0.1,2,1.7,0.9c7.7-4.8,15-10.2,21.9-15.9c6.3-5.3,12.3-10.8,17.8-17
		c6.6-7.4,12.4-15.4,16.7-24.3c2.1-4.3,3.8-8.8,4.9-13.6c0.9-3.7,1.5-7.5,1.6-11.4c0.1-3.3,0.1-6.7-0.4-10
		c-0.7-5.3-2.4-10.2-5.5-14.6c-1.7-2.3-3.6-4.3-5.7-6.1c-2.7-2.2-5.8-3.9-9.1-5.2c-4.9-1.9-9.9-2.6-15.1-2.5
		c-9,0.2-17.2,3.1-24.6,8.2c-1.7,1.2-3.4,2.6-4.9,4c-0.5,0.5-1,0.9-1.5,1.4c-1.1,1.1-1.2,1.1-2.4,0c-0.5-0.5-1-0.9-1.4-1.4
		c-3.1-2.9-6.4-5.3-10.2-7.2c-5.5-2.7-11.2-4.5-17.4-4.9c-8.8-0.6-17,1.2-24.3,6.2c-6.1,4.2-10.1,9.9-12,17.1
		c-0.9,3.3-1.3,6.6-1.3,10c-0.1,3.2-0.1,6.5,0.3,9.7c0.6,4.3,1.5,8.6,3,12.8c2.1,5.8,4.8,11.2,8,16.4c2.3,3.6,4.9,7.1,7.6,10.5
		c1.1,1.4,2.2,2.7,3.4,4.1c0.8,0.9,0.9,0.9,1.5-0.2c3.9-6,7.8-12,11.7-17.9c1.4-2.1,2.7-4.2,4.2-6.3c0.5-0.7,0.3-1.1-0.2-1.6
		c-2.6-2.8-5.1-5.7-7.8-8.5c-0.5-0.6-0.6-1.4-0.3-2.1c4-7.3,7.9-14.6,11.9-21.9c2.2-4,5-7.3,9.1-9.4c2.5-1.3,5.2-2,8-2
		c6.4-0.1,12.8-0.1,19.2,0c2.7,0,5,0.9,7.1,2.4c1,0.7,1.9,1.5,2.7,2.5c0.4,0.4,0.8,0.9,1.2,1.3c1,1.1,2,2.3,3,3.4s2.3,1.6,3.9,1.6
		c5.3,0,10.6,0,15.9,0c0.7,0,1.3,0.1,2,0.3c2.9,0.9,5,3.8,4.8,6.9c-0.4,5.1-1.3,10.1-3.3,14.8c-2.2,5.1-5.5,9.2-10.6,11.7
		c-3.5,1.7-7.2,1.9-10.9,1.8c-1.2-0.1-2.4-0.1-3.5-0.1c-0.6,0-0.9,0.2-1.1,0.8c-0.7,2-1.5,4-2.2,6.1c-0.3,0.8-0.6,0.8-1.1,0.2
		c-1.2-1.4-2.4-2.9-3.6-4.3c-0.4-0.5-0.8-0.9-1.2-1.4c-0.3-0.3-0.3-0.7-0.2-1.1c1-2.6,1.9-5.2,2.8-7.7c0.2-0.5,0.5-0.7,1-0.7
		c3.7,0.1,7.3,0,11,0.2c4.4,0.2,7.9-1.4,10.4-5.1c2.1-3,3.2-6.4,3.8-10c0.2-1,0.3-2.1,0.5-3.1c0.1-0.7,0-1-0.9-1c-1.4,0-2.8,0-4.3,0
		c-2.8,0-5.5-0.1-8.2,0c-5,0.2-8.9-1.8-12-5.6c-0.4-0.4-0.7-0.9-1.1-1.3c-0.8-0.9-1.6-1.8-2.4-2.7c-0.4-0.5-0.9-0.8-1.5-1.1
		c-0.7-0.3-1.5-0.5-2.3-0.5c-6,0-12-0.1-18,0c-4.7,0-8.1,2.2-10.3,6.4c-3.2,6-6.5,12-9.8,17.9c-0.4,0.7-0.3,1.1,0.2,1.7
		c1.9,2.1,3.8,4.1,5.6,6.2c1.2,1.3,2.4,2.7,3.6,4c0.3,0.3,0.6,0.6,1.1,0.5c2.4-0.6,4.8-1.1,6.9-2.4c2.9-1.7,4.5-4.4,5.3-7.5
		c0.7-2.6,0.9-5.4,1-8.1c0-1.2,0.2-1.4,1.5-1.3c0.6,0,1.2,0.1,1.8,0.1c1.3,0,2.5,0.1,3.8,0.1c0.7,0,1.1,0.3,1,1
		c-0.3,5-0.8,9.9-2.9,14.4c-0.1,0.3-0.3,0.7-0.5,1c-1.3,2.5-3.1,4.5-5.3,6.1c-1.6,1.2-3.5,2.2-5.5,2.9c-3.3,1.3-6.7,1.7-10.2,2.2
		c-0.8,0.1-1.2-0.4-1.6-0.9c-1.6-1.7-1.1-1.7-2.4,0.2c-4.9,7.3-9.7,14.7-14.5,22.1c-1.8,2.7-3.6,5.3-5.7,7.7c-0.6,0.6-1,0.7-1.6,0.1
		c-1.3-1.3-2.6-2.7-3.9-4.1c-4-4.3-7.8-8.8-11.2-13.7c-4.5-6.4-8.4-13.2-11.2-20.5c-1.5-3.8-2.6-7.7-3.4-11.7
		c-1.1-5.1-1.7-10.3-1.5-15.5c0.3-6.9,1.3-13.6,4.5-19.8c4.3-8.4,10.9-14.4,19.5-18.2c3.9-1.7,8-2.8,12.2-3.4
		c3.9-0.5,7.8-0.6,11.7-0.2c3.6,0.4,7.1,1,10.6,2.1c6.1,1.9,11.8,4.8,16.8,8.8c0.7,0.6,1.2,0.6,1.9,0c4.6-3.7,9.8-6.4,15.4-8.3
		c3.8-1.3,7.7-2.1,11.7-2.5c3.9-0.4,7.8-0.4,11.7,0.1c5,0.7,9.8,2,14.3,4.3c3,1.5,5.7,3.2,8.2,5.3l0,0c1.5,1.3,2.9,2.6,4.2,4.1
		c3.1,3.5,5.4,7.5,7,11.9c1.5,4.1,2.5,8.4,2.5,12.8C4300.6,1484.3,4300.9,1485.3,4300.9,1486.4z M4243.1,1489.5
		c0,2.1-1.4,3.6-3.5,3.6c-1.9,0-3.5-1.6-3.5-3.6c0-1.9,1.6-3.4,3.5-3.5C4241.7,1486,4243.1,1487.4,4243.1,1489.5z M4225.5,1542.2
		c0,1.7-1.3,3-2.9,3c-0.8,0-1.6-0.4-2.1-1c-2-2.1-0.2-4.9,2.1-5C4224.2,1539.3,4225.5,1540.6,4225.5,1542.2z M4059.1,1639.8
		c-0.2-3.5-3.4-7.3-7.2-8.2c3.6-0.9,6.5-4.8,6.7-8.2c0.5-10.2-11-11.3-25.7-11.3c-13.5,0-25.5,0.7-25.5,12.4h16.7
		c0-4.1,3.9-4.4,8.7-4.4c5.4,0,8.9,0.3,8.9,4.2c0,2.4-1.6,3.5-3.5,3.5h-11l-1.3,7.5h12.7c2,0,3.5,1.2,3.5,3.6c0,3.9-3.9,4.2-9.3,4.2
		c-4.8,0-9.1-0.3-9.1-4.5H4007c0,11.7,12.4,12.4,25.9,12.4C4047.6,1651.1,4059.5,1649.9,4059.1,1639.8z M4091.1,1612.1
		c-15.7,0-27.9,4.7-27.9,19.5s12.3,19.5,27.9,19.5c15.7,0,27.9-4.7,27.9-19.5C4119.1,1616.8,4106.8,1612.1,4091.1,1612.1z
		 M4091.1,1642.2c-6.7,0-11.1-3.5-11.1-10.7s4.4-10.6,11.1-10.6s11.1,3.5,11.1,10.6C4102.2,1638.8,4097.8,1642.2,4091.1,1642.2z
		 M4150.1,1612.1c-15.7,0-27.9,4.7-27.9,19.5s12.3,19.5,27.9,19.5c15.7,0,27.9-4.7,27.9-19.5
		C4178.1,1616.8,4165.8,1612.1,4150.1,1612.1z M4150.1,1642.2c-6.7,0-11.1-3.5-11.1-10.7s4.4-10.6,11.1-10.6s11.1,3.5,11.1,10.6
		C4161.2,1638.8,4156.9,1642.2,4150.1,1642.2z M4226.5,1613.4l-10.9,21.8l-10.8-21.8h-20.4v36.4h10.7V1625l12.4,24.8h12.4l12.4-24.8
		v24.8h16.8v-36.4H4226.5z M4291.2,1613.4h-18.4l-20.6,36.4h11.9l3.3-5.8h23.8l3.3,5.8h17.3L4291.2,1613.4z M4272.1,1635.8l7.3-12.8
		l7.3,12.8H4272.1z M4357,1613.4l-10.9,21.8l-10.8-21.8h-20.4v36.4h10.6V1625l12.4,24.8h12.4l12.4-24.8v24.8h16.8v-36.4H4357z
		 M4421.8,1613.4h-18.4l-20.6,36.4h11.9l3.3-5.8h23.8l3.3,5.8h17.3L4421.8,1613.4z M4402.7,1635.8l7.3-12.8l7.3,12.8H4402.7z"/>
</g>
<g id="срібна">
	<path class="st0" d="M3622,630c0-29.5,23.9-53.5,53.5-53.5s53.5,24,53.5,53.5v62c0,29.5-23.9,53.5-53.5,53.5s-53.5-24-53.5-53.5
		V630z"/>
	<path class="st1" d="M3662,698.4h18.4l1.2,0.1h0.3v-4.8h-0.3l-1.2,0.1h-8.1v-0.7l0.1-0.1c2.5-2.3,8.1-7.4,9.5-8.2v-5.7
		c-0.1,0.1-3.9,3.2-9.9,8.6l0,0l-0.2,0.2l-0.3-0.8c-0.9-2.5-2.8-5.5-5.4-5.5c-3.4,0-5.8,3.7-5.8,8.8v8.1h0.4L3662,698.4z
		 M3662.5,691.7c0-2.9,1.6-4.8,4-4.8c2.2,0,3.6,3.5,3.6,6l0,0v0.9h-7.6V691.7z M3660.7,677.2h-0.4v-4.7h0.3l1.2,0.1h18.4l1.2-0.1
		h0.4v4.7h-0.4l-1.2-0.1h-18.4L3660.7,677.2z M3661.9,668.1h18.4l1.2,0.1h0.4v-7.7c0-6.3-2.2-10.5-6.1-10.5c-2.5,0-4.5,2.3-5.4,6.3
		l0,0l-0.2,0.8l-0.3-0.7c-1.1-2.5-2.5-3.8-4.4-3.8c-3.1,0-5.2,2.7-5.2,7.8v7.9h0.4L3661.9,668.1z M3671.8,660.2
		c0-3.4,1.7-5.5,4.1-5.5c2.4,0,3.7,2.3,3.7,5.7v3.1h-7.9L3671.8,660.2L3671.8,660.2z M3662.4,661.6c0-2.9,1.4-4.6,3.6-4.6
		c2.5,0,3.6,2.5,3.6,6.2v0.3h-7.2L3662.4,661.6L3662.4,661.6z M3661.9,647.5l-1.6,0.1V644l13.8-13.2h-12.3l-1.2,0.2h-0.4v-3.6h0.4
		l1.2,0.1h19.9v2.1c-4.8,4.6-15.1,14.6-15.1,14.6h13.6l1.2-0.2h0.4v3.6h-0.4l-1.2-0.1L3661.9,647.5L3661.9,647.5z M3682.2,709.3
		c0.1,3.2-0.2,6.1-0.8,7.6l-3.6,0.4v-0.5c0.3-0.5,0.6-1,1-1.6c1.1-1.8,1.7-4.1,1.7-5.9c-0.1-2.2-1.6-3.6-3.7-3.5
		c-1.6,0.1-3,1.8-4.5,5.6c-1.6,4.1-3.5,6-6,6.1c-3.6,0.1-6-2.9-6.2-7.6c-0.1-3,0.4-5.5,1.1-6.4l3.1-0.3v0.4c0,0.1-2.5,3.9-2.4,6.8
		c0,1.7,1.1,2.8,2.7,2.8c1.8-0.1,3.2-1.6,4.5-4.9c1.8-4.5,3.8-6.8,6.5-6.9C3679.3,701.1,3682,704.5,3682.2,709.3z M3674.4,622.1
		c2.7,1.3,4.8,2.3,6.1,2.9l1.1,0.6c0.1,0,0.1,0,0.2,0.1v-3.3c-0.1,0-0.3-0.1-0.4-0.1l-1.1-0.4c-0.6-0.3-1.4-0.6-2.3-1
		c-0.2-0.1-0.7-0.3-1.3-0.6v-10.4l3.7-1.7c0.3-0.2,0.7-0.3,1-0.5c0.1,0,0.3-0.1,0.4-0.1v-4.9c-0.1,0-0.1,0-0.1,0.1l-0.9,0.5
		c-4.8,2.4-19.4,9.4-19.5,9.4l-0.9,0.5v2.2c0.8,0.4,1.6,0.8,2.4,1.2C3667.3,618.6,3671.3,620.6,3674.4,622.1z M3674.5,610.8v8.4
		l-1.3-0.6c-2.2-1-4.7-2.2-7.1-3.3l-0.6-0.3L3674.5,610.8z M3692.1,691L3692.1,691l-0.1-0.2c-0.3-0.7-0.8-1.4-1.6-1.4
		c-1,0-1.7,0.9-1.7,2.4v2.3h0.1h0.3h5.4h0.3h0.1v-1.3h-0.1h-0.3h-2.4v-0.2l0,0c0.9-0.8,1.8-1.6,2.8-2.3v-1.6
		C3695,688.6,3693.9,689.5,3692.1,691L3692.1,691z M3691.6,692.4v0.3h-2.2v-0.6c0-0.8,0.5-1.3,1.2-1.3S3691.6,691.7,3691.6,692.4
		L3691.6,692.4z M3688.8,652.1h-0.1v-1.3h0.1h0.3h5.4h0.3h0.1v1.3h-0.1h-0.4h-5.4H3688.8z M3694.7,711.5l0.3-0.3v1.6l-3.1,2.7h2.6
		h0.4h0.1v1.3h-0.1h-0.4h-5.4h-0.4h-0.1v-1.3h0.1h0.3h2.5l-0.8-0.7c-0.6-0.6-1.1-1-1.7-1.5l-0.3-0.3l0,0l-0.1-0.1v-1.3l0,0
		c0.6,0.7,2.9,3,2.9,3L3694.7,711.5z M3689.2,632.6h-0.5v-1l4.1-3.7h-3.6h-0.3h-0.1v-1h0.1h0.4h5.8v0.6l0,0c-1.4,1.3-4.4,4-4.4,4
		h3.9h0.4h0.1v1h-0.1h-0.3h-5.5V632.6z M3694.6,604c0.1-0.1,0.2-0.1,0.3-0.1h0.1v-1.4l0,0l0,0l-0.3,0.1c-1.4,0.7-5.7,2.6-5.7,2.6
		l-0.3,0.1v0.6c0.2,0.1,0.4,0.2,0.7,0.3c1.3,0.6,2.5,1.1,3.4,1.6l1.8,0.8l0.3,0.2c0,0,0,0,0.1,0V608h-0.1l-0.3-0.1
		c-0.2-0.1-0.4-0.2-0.7-0.3c-0.1,0-0.2-0.1-0.4-0.2v-2.9L3694.6,604z M3692.9,607.1c-0.2-0.1-0.4-0.2-0.4-0.2
		c-0.7-0.3-1.4-0.6-2.1-0.9l-0.2-0.1l2.6-1.2L3692.9,607.1L3692.9,607.1z M3695,667.3l-0.3,0.2c-1.4,0.7-5.7,2.6-5.7,2.6l-0.3,0.1
		v0.6c0.2,0.1,0.5,0.2,0.7,0.3l3.4,1.6c0.8,0.4,1.4,0.6,1.8,0.8l0.3,0.2h0.1v-0.9h-0.1l-0.3-0.1c-0.2-0.1-0.4-0.2-0.7-0.3
		c0,0-0.2-0.1-0.4-0.2v-2.9l1.1-0.5c0.1-0.1,0.2-0.1,0.3-0.1h0.1L3695,667.3L3695,667.3L3695,667.3z M3692.9,671.9
		c-0.2-0.1-0.4-0.2-0.4-0.2c-0.7-0.3-1.4-0.6-2.1-0.9l-0.2-0.1l2.6-1.2L3692.9,671.9L3692.9,671.9z"/>
</g>
<g id="авалон">
	<path class="st0" d="M3622,982c0-29.5,23.9-53.5,53.5-53.5s53.5,24,53.5,53.5v62c0,29.6-23.9,53.5-53.5,53.5s-53.5-23.9-53.5-53.5
		V982z"/>
	<path class="st1" d="M3683.7,1045.5v16.3l-28.6-3.1L3683.7,1045.5z M3657.8,1061.4l25.9,2.8v9.3L3657.8,1061.4z M3686.1,1064.5
		l9.1,1l-9.1,7.4V1064.5z M3650,1058.5v1.9l34.3,15.9h1.1h0.2l12.9-10.4l0.2-0.2v-2.3l-12.6-1.4v-18.7l-1.6-0.9L3650,1058.5z
		 M3682.5,1028.9c0.6,0.8,0.9,1.8,0.9,3c0,1-0.2,1.8-0.6,2.3c-0.4,0.5-0.9,0.8-1.6,0.8c-1,0-1.7-0.5-2.1-1.4
		c-0.4-0.9-0.7-2.3-0.7-4.2v-2.7c0.6,0.1,1.1,0.3,1.7,0.4C3681.1,1027.5,3681.9,1028.1,3682.5,1028.9z M3673.6,1025
		c-0.9,0.5-1.7,1.2-2.2,2.2s-0.8,2.2-0.8,3.6c0,1.5,0.3,2.7,1,3.6c0.6,0.9,1.5,1.8,2.7,2.5l1.4-1.9c-0.9-0.5-1.5-1.1-2-1.7
		c-0.4-0.6-0.7-1.4-0.7-2.4c0-0.9,0.2-1.6,0.5-2.3c0.3-0.7,0.8-1.2,1.4-1.5c0.5-0.3,1.1-0.4,1.7-0.5v2.9c0,1.7,0.2,3.1,0.5,4.3
		c0.3,1.2,0.9,2.1,1.6,2.7c0.7,0.6,1.7,0.9,2.9,0.9c1.3,0,2.4-0.4,3.2-1.3c0.8-0.8,1.2-2.2,1.2-4s-0.8-3.3-2.3-4.3
		c-0.7-0.5-1.6-0.8-2.6-1.1l0,0h4.5v-2.3h-9l0,0C3675.4,1024.3,3674.4,1024.5,3673.6,1025z M3683.8,1012.8v1.7l-13,3.5v2.5l14.7-4
		v-5.9l-14.7-3.7v2.5L3683.8,1012.8z M3682.5,995.2c0.6,0.8,0.9,1.8,0.9,3c0,1-0.2,1.8-0.6,2.3c-0.4,0.5-0.9,0.8-1.6,0.8
		c-1,0-1.7-0.5-2.1-1.3c-0.4-0.9-0.7-2.3-0.7-4.2V993c0.6,0.1,1.1,0.2,1.7,0.4C3681.1,993.9,3681.9,994.5,3682.5,995.2z
		 M3673.6,991.3c-0.9,0.5-1.7,1.2-2.2,2.2s-0.8,2.2-0.8,3.6c0,1.5,0.3,2.7,1,3.6c0.6,0.9,1.5,1.8,2.7,2.5l1.4-2
		c-0.9-0.5-1.5-1.1-2-1.7c-0.4-0.6-0.7-1.4-0.7-2.4c0-0.9,0.2-1.6,0.5-2.3s0.8-1.2,1.4-1.5c0.5-0.3,1.1-0.4,1.7-0.5v2.9
		c0,1.7,0.2,3.1,0.5,4.3s0.9,2,1.6,2.7c0.7,0.6,1.7,0.9,2.9,0.9c1.3,0,2.4-0.4,3.2-1.3c0.8-0.8,1.2-2.2,1.2-4s-0.8-3.3-2.3-4.3
		c-0.7-0.5-1.6-0.9-2.6-1.1v-0.1h4.5v-2.3h-9l0,0C3675.4,990.7,3674.4,990.9,3673.6,991.3z M3685.5,985.8v-2.4H3663v2.4H3685.5z
		 M3681,967.6c0.8,0.4,1.5,1,1.9,1.7s0.7,1.6,0.7,2.5s-0.2,1.8-0.7,2.5c-0.4,0.7-1.1,1.3-1.9,1.7c-0.8,0.4-1.8,0.6-2.8,0.6
		s-2-0.2-2.8-0.6c-0.8-0.4-1.4-1-1.9-1.7c-0.4-0.7-0.7-1.6-0.7-2.5s0.2-1.8,0.7-2.5s1.1-1.3,1.9-1.7c0.8-0.4,1.8-0.6,2.8-0.6
		C3679.2,966.9,3680.1,967.1,3681,967.6z M3671.4,968.1c-0.7,1.1-1,2.3-1,3.7s0.4,2.6,1,3.7c0.7,1.1,1.6,2,2.8,2.6s2.5,0.9,3.9,0.9
		s2.7-0.3,3.9-0.9c1.2-0.6,2.1-1.5,2.8-2.6s1-2.4,1-3.7c0-1.4-0.3-2.6-1-3.7c-0.7-1.1-1.6-2-2.8-2.6s-2.5-0.9-3.9-0.9
		s-2.7,0.3-3.9,0.9C3673.1,966.1,3672.1,967,3671.4,968.1z M3673.4,947.7c-1,0.5-1.7,1.1-2.2,2s-0.7,1.9-0.7,3.2
		c0,1.2,0.3,2.2,0.9,3c0.6,0.8,1.4,1.4,2.6,1.8c0.2,0.1,0.4,0.1,0.6,0.2h-3.7v2.4h14.7v-2.4h-7.1c-1.3,0-2.3-0.2-3.1-0.6
		c-0.8-0.4-1.4-1-1.9-1.7c-0.4-0.7-0.6-1.5-0.6-2.3c0-1.2,0.4-2.1,1.1-2.8c0.7-0.7,1.8-1,3.3-1h8.3V947h-8.3
		C3675.6,947,3674.4,947.2,3673.4,947.7z"/>
</g>
<g id="героме">
	<path class="st0" d="M3622,1334c0-29.6,23.9-53.5,53.5-53.5s53.5,23.9,53.5,53.5v62c0,29.6-23.9,53.5-53.5,53.5
		s-53.5-23.9-53.5-53.5V1334z"/>
	<path class="st1" d="M3653.7,1315c-0.1,3.9,0.7,7.1,3.1,10.2c1.9,2.3,4.1,4.4,6,6.7c1.5,1.8,2.8,3.8,4.1,5.7
		c0.6,0.8,0.3,1.7-0.3,2.5l-0.9-1.8c-0.3-0.6-0.7-1.2-1.2-1.8c-0.3-0.3-0.5-0.5-0.6-0.5c1.1,1.4,1.9,2.9,2.3,4.6
		c0.2,1-0.1,3.5-0.1,4.5c-0.5-2.2-1.2-4.3-2.1-6.4c-0.9-1.6-2.3-2.9-3.9-3.8c2.3,1.9,4,4.1,4.6,7c-1.2-2.2-3.6-5.5-6.2-6.4
		c0.6,0.6,0.9,1.3,1,2.2c-1.9-0.6-3.9-4.1-4.7-6c0.2,0.8,0.4,1.6,0.7,2.4c0.2,0.6,0.5,1.2,0.7,1.9c-1.6-0.8-2.8-2.1-3.5-3.7
		c-0.5-1.1-0.4-2.7,0.8-2.7c-0.4-0.1-0.7-0.1-1,0.1c-0.2,0.2-0.3,0.4-0.4,0.6c-0.1,0.2-0.1,0.5,0,0.7c0.1,0.6,0.3,1.9,0.4,2.5
		c0.1,0.4-0.3-0.1-0.5-0.5c-0.7-1.3-1.6-2.5-2.1-3.8c-0.4-1-0.6-2.1-0.5-3.2s0.4-2.1,0.9-3.1c-0.6,0.9-1,1.8-1.2,2.8
		c-0.1,1-0.1,2,0.2,3c0.3,1.5,1.2,2.9,1.8,4.4c0.3,0.7,0.6,1.4,0.9,2.3l-1.4-0.4c-0.7-0.3-0.7-0.2-0.3,0.1c0.3,0.3,0.6,0.7,0.9,1
		c0.5,0.7,0.8,1.4,1,2.1c0.4,0.8,0.4,1.6,0.3,2.4c-0.2,1.9-1.3,3.7-2.1,5.3l-0.1-1c-0.3,0.9-0.5,1.9-0.5,2.8s0.2,1.8,0.4,2.7
		c0.2,0.9,0.5,1.8,0.9,2.7c0.5,0.8,0.9,1.6,1.2,2.4c0.2,0.6,0.4,1.9,0.2,1.9c-1.1-1.7-2.7-5.2-3.9-7.1l1,2.9c-0.2,0-0.4-0.1-0.6-0.2
		c-0.4-0.2-0.5-0.2-0.8-0.1c0.8,0.5,1.4,1.1,1.9,1.8c0.5,0.8,0.8,1.6,0.9,2.5c-0.6-0.5-1.2-1-1.8-1.5c-2.8-3.1-3.6-7.2-3.5-10.8
		c-0.8,3.6,0.6,6.7,1.8,9.9l-2.3-4c0.3,1.3,0.8,2.6,1.5,3.7c0.9,1.1,1.8,2.2,2.8,3.2c-2.3-1-4.3-2.6-5.7-4.7
		c-1.5-2.4-1.4-4.5-1.4-7.2c0-0.5,0.1-1.5,0.1-2c-0.9,3-0.7,6.3,0.8,9.2c1.5,2.9,4,4.7,7.1,5.7c0.2,0.1,0.4,0.3,0.6,0.5
		c0.1,0.2,0.2,0.5,0.1,0.8c-0.1,0.3,0,0.6-0.7,0.6c-1.5,0-3.4,0.2-5-0.2c-5.7-1.1-8.9-6.2-6.5-12.2c0.2-0.5,0.8-2.1,1-2.6
		c-0.1,0-0.2,0.3-0.6,1c-1.5,3.3-2.2,6.8-0.5,10.1c1.8,3.5,4.9,4.7,8.7,4.4c1.1-0.1,2.2-0.1,3.5-0.2c-0.3,1.3-0.5,2.5-0.8,3.7
		c-0.9,3.9-0.7,5.9,2.8,8.4c1.1,0.7,1.9,1.7,2.4,2.9c0.4,1.2,0.5,2.5,0.1,3.7c-0.1-1.9-0.5-3.5-2-4.6s-2.6-2.6-3.3-4.3
		c0,0-0.1-0.1-0.1,0.3c0,0.2,0,0.3,0,0.5c0,0.3,0,0.5,0,0.7c0.3,2,1.1,3.9,2.4,5.5c0.5,0.5,0.9,1.1,1.1,1.8s0.3,1.4,0.3,2.1
		c-1.1-1.1-2.2-2.2-3.3-3.3c-0.6-0.6-1.3-0.8-1.7-1.2c-0.6-0.8-1.1-1.7-1.4-2.7c-0.4-1.9-0.7-2.8-0.3-4.8c0.2-1.2,1-2.6,1.7-3.8
		c-0.1,0-0.2,0.2-0.5,0.4c-0.3,0.4-0.6,0.8-0.8,1.3c-1.5,3.2-0.9,6,0.4,9.4c0.4,0.8,0.6,1.6,0.7,2.4c0.1,0.8,0.4,2.8-1,0.6
		c-0.5-0.8-0.9-1.8-1-2.8l-0.2-1.9c-0.4,4-0.5,8.6,2.4,11.8c-3.1-2.1-5.7-4.6-5.8-8.7v-0.5c0.4-3.9,1.1-7.5,1.7-10.8
		c0.1-0.8,0-1.7-0.2-2.4c-0.1-0.2-0.2-0.3-0.4-0.4s-0.4-0.2-0.5-0.1c-0.7,0-0.9,1.2-0.9,1.8c-0.1,0.4-0.1,0.9,0,1.4
		c0.1,0.4,0.4,0.8,0.8,1.1c-0.5-1.2-0.8-2-0.1-3.7c0.6-0.8,1,0.8,1,1.7c-0.1,2-0.8,4.4-1,6.4c-0.1,1.3-1,5.8-0.5,7.5
		c0.1,0.8,0.3,1.6,0.6,2.3c0.8,2.1,2.5,3.3,4.3,4.4c2.4,1.5,3.1,3.7,2.8,6.4c-0.3,2.4-0.8,4.9-1.1,7.3c-0.6,5,0.4,10,3,14.3
		c0.5,0.9,3.8,6,13.1,11c-11.5-7-13.1-11.9-13.6-13.1c-2.6-5.6-2.6-10.5-1.2-16.6c0.5-2.4,1.8-4.5,3.7-6.1c1.8-1.5,3.9-2.5,6.3-2.5
		c2.2,0,3.5,1.1,2.6,3c-0.3,0.6-0.7,0.6-0.6,0.7c0.5-0.1,0.9-0.5,1.2-0.9s0.4-1,0.3-1.5c-0.2-1.7-2.4-1.9-4.2-2.4
		c0.6-0.2,1-0.4,1.5-0.6c2-0.7,3.8-1.7,5-3.5c1.8-2.8,2.7-6,2.6-9.3c0-0.6,0.2-1.1,0.4-1.6c0.4-0.9,1.2-1.8,1.5-2.7
		c0.3-1,0.5-2,0.7-3.1c0.1-0.6,0.1-1.3-0.1-1.9c-0.1-0.3-0.1-0.5-0.2-0.5c0.1,2.7-0.6,4.7-2.2,5.4c0-0.6,0-1.1,0-1.7
		c0-0.4-0.1-0.9-0.2-1.3l0.3-0.8c1.4-3.6,0.7-7.2-0.4-10.7c-0.4-1.4-0.7-2.7,0.3-3.9c0.6-0.8,1.1-1.6,1.6-2.4
		c1.1-1.7,1.9-3.5,1.9-5.5c0-3.1-1.6-5.4-3.5-7.5c-2-2.2-4.4-3.9-6.6-6c-1.9-1.7-3.6-3.4-5.2-5.4c-2.2-2.9-3-6.4-3.2-10.1
		c0-0.2,0-0.2,0.1-1.3C3653.8,1313.3,3653.7,1314.6,3653.7,1315 M3667.3,1341.6c0-0.2,0-0.4,0-0.6c0.2-1.6,0.5-2.4,0.6-2.4
		c0.8,2.4,1.1,7.2-0.5,8.9C3667.4,1345.1,3667.3,1343.8,3667.3,1341.6 M3652.3,1344.8c0.1-0.7,0.3-1.3,0.6-1.9
		c0.4-0.8,0.7-1.8,0.6-2.7c0-0.9-0.3-1.9-0.7-2.7l1.2,0.1c-0.1-0.4-0.7-2.3-0.9-2.8c0.6,0.6,1.6,2.5,2,2.8c1-0.7,3.9-0.1,7,3
		c-0.2-0.6-0.4-1.2-0.9-1.7c-0.2-0.3-0.4-0.7-0.6-1c0.9,0.6,1.9,2.4,2.3,3.2c0.6,1.3,1,2.6,1.2,4c0.2-0.2,0.3-0.9,0.2-2.2
		c0.8,2.2,0.7,6.9-0.4,8.3c0.1-0.8,0.2-1.5,0.2-2.3s-0.2-1.5-0.3-2.3c-0.2-0.7-0.3-1.4-0.5-2.2c-0.2-0.8-0.5-1.7-0.9-2.5
		c-0.3-0.5-0.6-1-1.1-1.4s-1-0.8-1.5-1.2c-1-0.7-2.1-1.2-3.3-1.6c-0.1,0.1,0.3,0.3,0.8,0.5c0.4,0.2,0.9,0.5,1.3,0.7l0.2,0.1
		c0.4,0.3,0.7,0.6,1,0.9c0.9,0.8,1.6,1.8,2,2.8c-0.1,0-1.3-1.5-1.8-1.8s-1.1-0.7-1.6-1c-1.8-1-1.6-0.8-1-0.4c0.3,0.2,0.9,0.6,1.4,1
		c0.4,0.3,0.8,0.7,1.1,1.2l1.2,1.4c-0.5-0.4-1-0.9-1.5-1.4c-0.5-0.4-1-0.8-1.5-1.1c-0.8-0.4-1.7-0.7-2.6-0.8c0,0.4,0.9,1.3,0.6,2.6
		c-0.7-0.6-1.2-1.3-1.6-2.1v3c-1.8,0.6-0.8,4.1-1.3,5.7C3653,1348.6,3652.1,1345.7,3652.3,1344.8 M3664.2,1356.6l-1.6,5.2
		C3662.1,1360.5,3662.6,1358.9,3664.2,1356.6z M3661.8,1362.7l-2.4-2.6C3660.8,1360.1,3661.6,1360.8,3661.8,1362.7z M3662.1,1357.6
		c-0.8,0.7-1.9,1.5-3.5,0.8s-2.9-2.3-3.5-3.9c-0.4-1-0.9-2-1.2-3.1c-0.4-1.2,1,0.3,0.8,0c-0.3-0.9-0.6-1.8-0.8-2
		c-0.4-0.7-0.1-1.5,1-0.8c-0.8-1.2-0.9-2.9-0.2-3.7c0.1-0.1,0.1-0.1,0.2-0.2c0.1,0,0.2-0.1,0.3-0.1s0.2,0,0.3,0.1
		c0.1,0,0.2,0.1,0.2,0.2c0.3,0.3,0.5,0.7,0.7,1c-0.2-0.6-0.3-1.2-0.3-1.8c0-1.1,1.3-1,2.1,1c0.2-0.2-0.6-2.2,0.4-2.3
		c0.3,0,0.6,1,0.9,2.1c0.1-0.3-0.2-0.8,0.2-1c0.2-0.1,0.5-0.1,0.8,0.3c0.4,0.5,0.7,1,1,1.5c0.9,1.4,1.1,1.5,1.4,2.5
		c0.1,0.6,0.2,1.1,0.2,1.7c0.1,1.9-0.1,3.9-0.4,5.8C3662.6,1356.3,3662.4,1357,3662.1,1357.6
		C3662.2,1357.5,3662.2,1357.5,3662.1,1357.6 M3663.5,1354.8l0.1-0.6c0.3-1,0.8-2.1,1.1-3.1c0.1-0.4,0.6-1.8,0.8-1.8
		c-0.4,1.2-1.8,5.2-2.2,6.3C3663.4,1355.4,3663.4,1355.1,3663.5,1354.8z M3651.9,1346.8c0.2,1.2,0.6,2.9,0.8,4.1
		C3651.7,1350.6,3651.2,1347.9,3651.9,1346.8z M3651.9,1353.1c-0.3-0.5-0.5-1.1-0.7-1.6s-0.2-1-0.2-1.5c0.8,0.5,1.5,3.3,1.6,4.1
		C3652.3,1353.8,3652,1353.5,3651.9,1353.1z M3658.7,1359.2c-2.7-0.8-5.9-3.4-5.4-6.3c0.5,0.8,0.9,1.6,1.3,2.3
		c1.1,1.8,2.5,3.3,4.6,3.6c2,0.3,3.3-1.4,3.5-1.8l-0.2,0.2c0.1-0.1,0.3-0.2,0.3-0.2c-0.5,0.8-0.7,2-1.4,2.4
		C3660.7,1359.7,3659.5,1359.5,3658.7,1359.2 M3654.1,1359.8c3.4-0.4,6.1,0.9,6.9,3.1c-1-0.1-2-0.1-3-0.2c-0.8,0-1.6-0.1-2.4-0.3
		C3654.4,1362.1,3653.9,1361.2,3654.1,1359.8 M3652.6,1360.1c0.4,3.1,2.3,4.8,5.1,5.6c2.1,0.5,3,3.1,2.5,5.5c-0.5-2.4-2.4-3.3-4.4-4
		c-0.5-0.2-1-0.4-1.4-0.7c-0.6-0.3-1.2-0.8-1.7-1.3c-0.3-0.3-0.3-0.4-0.3-0.4c1.6,1.1,1.3,0.3,1.2,0c-0.4-1.2-0.6-1.4-0.9-2.6
		C3652.5,1361.5,3652.5,1360.8,3652.6,1360.1 M3661.2,1368.7c-0.1-0.5-0.2-1-0.4-1.5s-0.5-0.9-0.9-1.3c-0.4-0.3-0.9-0.6-1.4-0.7
		c-1.5-0.4-3-0.8-3.9-2.1c1.6,0.2,3.2,0.4,4.8,0.6c0.5,0,1,0.2,1.3,0.5c0.4,0.3,0.6,0.8,0.6,1.3
		C3661.4,1366.5,3661.4,1367.6,3661.2,1368.7z M3664,1366.2c1-1.7,1.3-2.5,2.4-4.1c0.7-1,1.3-2,1.8-3.1c-0.1,0.6-0.5,1.7-0.8,2.7
		c-0.1,0.3-0.3,0.7-0.5,1l-4.3,7.6c-0.2-0.1,0-0.2,0.2-1C3663.3,1367.6,3663.4,1367.2,3664,1366.2 M3659.4,1373.1
		c-0.2-0.4-0.4-0.7-0.7-1.1c-0.8-0.7-1.5-1.5-2.4-2.2c-0.9-0.8-2-1.4-2.9-2.2c-0.5-0.5-1-1.2-1.2-1.9c1.8,1,4.4,2.5,5.9,3.5
		C3659.2,1370.1,3659.6,1371.4,3659.4,1373.1z M3651.1,1365.1c0.1-0.8,0.2-1.5,0.3-2.3c0.1,0.4-0.1,1.6,0.1,3.3
		c0.2,2.1,1.7,3.6,4,4.1c1.6,0.4,2.9,1.3,3.1,3.1c0,0.3,0,0.7-0.1,1c-0.3-2.2-1.8-2.9-3.7-3.3c-3.1-0.6-3.8-2.6-3.8-4.8
		C3651,1365.9,3651.1,1365.4,3651.1,1365.1 M3656.9,1378c0.3-2.4-0.4-3.8-2.6-4.9c-0.9-0.5-1.7-1-2.5-1.7c-0.5-0.4-0.8-0.9-1.1-1.5
		c-0.2-0.6-0.3-1.2-0.3-1.8c0.2,0.8,0.6,1.6,1.2,2.2c0.6,0.6,1.4,1,2.2,1.2c4.2,1,4.3,3.8,3,7.1
		C3656.9,1378.4,3656.9,1378.2,3656.9,1378 M3666.8,1373.8c-0.9,1.4-2.6,1.7-3.9,2.4c-1.3,0.8-2.6,1.6-4.1,2.4
		C3660.8,1375.6,3663.8,1374.7,3666.8,1373.8 M3654.4,1380c-0.3-1-0.8-1.9-1.5-2.6c-0.6-0.6-1.1-1.3-1.5-2.1
		c-0.5-0.9-0.4-1.5-0.3-1.6c4,2.8,4.6,4.9,3.7,9.1C3654.8,1381.8,3654.6,1380.9,3654.4,1380z M3655.7,1386.1
		c-0.4,0.2-1.5,1.1-1.6,1.1c0.7-0.7,1.6-2.1,2.4-2.6c1.7-0.9,3.4-1.7,5.2-2.3c1.7-0.6,3.2-1.6,4.4-2.9c0.1-0.1,0.2-0.2,0.6-0.5
		c-0.3,0.9-0.8,1.7-1.4,2.4c-0.6,0.7-1.4,1.2-2.3,1.5c-1.4,0.7-3,1.1-4.5,1.7C3657.6,1384.9,3656.6,1385.4,3655.7,1386.1z
		 M3662.7,1381.1c-1.9,0.8-3.8,1.4-5.8,2.1c1.1-1.2,2.4-2.2,4-2.6c2-0.8,4.1-1.3,5.8-2.9C3665.8,1379.3,3664.4,1380.5,3662.7,1381.1
		z M3653.2,1386.4c0.2-2.5-1-4.5-2.7-6.3C3652.6,1380.2,3654.1,1384.2,3653.2,1386.4z M3649.4,1379.7c1.3,1.3,2.4,2.7,2.6,4.7
		C3650.8,1383,3649.4,1381.8,3649.4,1379.7z M3651,1384.7c-0.9-0.7-1.7-1.5-2.5-2.3c-1.2-1.3-0.3-1.2,0.4-0.8
		c0.4,0.2,0.6,0.5,0.8,0.8C3650.1,1383.2,3650.6,1384,3651,1384.7 M3646.8,1380.2c0.7,2.3,2.8,3.8,4.6,5.3c1.1,0.7,1.3,2.4,0.5,4
		C3649.4,1386.8,3646.7,1384.3,3646.8,1380.2z M3662.1,1385.5c-1.2,0.3-2.4,0.7-3.6,1.1c-2.1,0.6-4,1.9-5.3,3.7
		c-0.1,0.2-0.3,0.3-0.4,0.5c-0.1,0.1-0.2,0.1-0.5,0.3c0.6-1.8,1.7-3.1,2.8-4.3c2.1-1.4,5.9-2.6,8.3-3.7c2.2-1,3.4-3,4.2-5.3
		c0.1-0.3,0.2-0.6,0.4-1.1C3667.9,1380.5,3666.2,1384.3,3662.1,1385.5 M3668.2,1374.2c-0.3,1-0.6,2.1-1.5,2.6
		c-2.6,1.4-5.3,2.7-8.1,3.8c0.2-0.5,0.5-1,0.9-1.4s0.8-0.8,1.3-1c1.6-0.9,3.2-1.6,4.8-2.4c0.9-0.5,2-1.5,2.8-2.1
		C3668.4,1373.7,3668.3,1373.8,3668.2,1374.2 M3669.5,1370.8c-0.4,0.4-0.6,1.2-1.9,2c-0.8,0.5-1.8,0.5-2.7,0.9
		c-1.2,0.5-2.4,1-3.5,1.4c0.5-1.4,3.5-3.3,6.7-4.1C3668.5,1370.9,3669,1370.8,3669.5,1370.8z M3668.5,1369.8c-0.3,0.7-1.4,1-2.3,1.3
		l2.6-4.3C3668.8,1367.8,3668.8,1369.1,3668.5,1369.8 M3668.2,1365.8c-1.2,2.9-3,5.5-6,7c0.1-0.3,0.3-0.6,0.4-0.9
		c1.4-1.8,2.9-3.4,4.2-5.3c0.7-1.2,1.4-2.4,1.9-3.7C3668.7,1363.9,3668.5,1364.9,3668.2,1365.8 M3668.9,1360.9c0,0.7,0,1.3-0.1,2
		v0.1c-0.3,0.5-0.7,1-1,1.6c-0.6,0.9-2.8,3.3-3.4,4.1c2-3.2,3.5-6.7,4.5-10.3C3668.9,1359.2,3668.9,1359.5,3668.9,1360.9
		 M3662.9,1366.2c0.3-0.9,0.6-1.7,1.1-2.5c1.6-2.1,3-4.2,3.7-6.8C3667.6,1360.8,3664.7,1363.2,3662.9,1366.2 M3666.5,1357.8
		c-0.9,1.8-1.6,2.9-2.5,4.7c-1.1,1.8-1.1,1.8-0.6,0.4c0.6-1.4,1.4-2.8,2-4.2c0.4-0.5,1.4-2.1,1.6-2.3
		C3667.1,1356.4,3666.9,1356.9,3666.5,1357.8 M3665.3,1358.7c-0.3,0.5-1.2,1.6-1.5,1.9c-0.1-0.1,0.4-0.7,0.6-1.1l1.8-3.5l0.5-0.9
		c0.1-0.2,0.3-0.6,0.4-0.6C3666.5,1355.6,3665.8,1357.7,3665.3,1358.7 M3664.8,1355.5c0.1-0.9,0.3-1.7,0.5-2.6c0.2-1,0.6-2,1-3
		c0.1-0.2,0.1-0.3,0.3-0.5c0.5-0.9,0.9-1.4,1.1-1.4C3667.5,1349.2,3665,1354.2,3664.8,1355.5 M3669.1,1336.4c4.2,3.7,4.2,10-1.1,15
		c0-0.5,0-1,0.1-1.5c1-3.4,1.5-6.3,0.8-9.8c-0.1-0.5-0.3-1.1-0.5-1.6c-0.3-0.7-0.6-0.8-0.5-1.1
		C3668,1337.2,3668.6,1336,3669.1,1336.4z M3667.7,1337.1c-0.4-0.9-2.1-2.8-2.5-3.7C3668.6,1335.6,3668.9,1336.1,3667.7,1337.1z
		 M3660.3,1348.1c-1-1.3-3.1-1.5-3.9-0.1c-0.5,0.9-0.7,1.7-0.6,3.3c0.3,2.1,0.8,4,2.4,5.4c1.5,1.5,3.4,1,3.9-0.9
		c0.4-1.3,0.4-2.7,0.1-4C3661.9,1350.4,3661.2,1349.2,3660.3,1348.1z M3661.7,1354.8c-0.2,1-0.6,1.8-1.6,2.1
		c-0.8,0.2-1.8-0.6-2.2-1.7s-0.7-3.2,0-4.1c0.2-0.3,0.5-0.6,0.9-0.7s0.8-0.1,1.1,0c0.8,0.2,1.4,1.3,1.6,2c0.1,0.2,0.1,0.4,0.2,0.7
		C3661.8,1353.6,3661.8,1354.2,3661.7,1354.8 M3691.2,1341.2c-3.8-1.2-9-3-12.8-4.3c-0.3-0.1-0.7-0.2-1.1-0.2c-0.2,0-0.3,0-0.5,0.1
		c-0.1,0.1-0.3,0.2-0.4,0.3c-0.3,0.3-0.2,1,0,1.5c0.7,1.8,2.1,3.2,3.8,4.1c2.2,1,4.5,1.8,6.7,2.6c1.2,0.4,2.4,0.7,3.5,1.1
		c0.2,0.1,0.6,0.1,0.6,0.3c0,1.1,0.1,2.8,0.1,4v0.1c-1.4-0.4-3.7-1.2-5.1-1.6c-0.3-0.1-0.5-0.1-1-0.3c0.8,1.5,0.9,2.9,0.3,4.3
		c-0.2,0.4,0.3,0.6,0.5,0.8c1.8,1.1,3.5,2.3,4.6,4.2c0.9,1.6,1.2,3.5,0.8,5.3c-0.5,2.3-2.1,3.5-4.6,3.8c-0.3,0-0.6,0-1,0.1
		c1.2,1,2.5,2,3.6,3s2.3,2.4,2,4.3c0,0.4-0.2,0.7-0.4,1s-0.6,0.5-0.9,0.6c-2,0.5-4.1,0.5-6.1-0.2c-2.2-0.6-4.3-1.5-6.4-2.2
		c0.1,0.9,0.2,1.8,0.4,2.7c0.1,0.4,0.6,0.7,1.1,0.9c2.9,1.7,5.9,3.3,8.7,5.2c2.8,1.9,4.1,4.9,3.8,8.5c-0.1,1.1-0.6,2.1-1.4,3
		c-0.8,0.8-1.8,1.3-2.9,1.5c-5.4,0.7-11.1-3-12.5-7.8c-0.5-1.7-0.5-3.4,0.5-4.9c1.6-2.2,4.8-1.8,6.4,0.8c1.2,2,1.7,4.4,1.2,6.8
		c-0.1,0.8,0.1,1,0.8,1.1c1,0.2,2.1,0.3,3.2,0.3c2.6-0.3,3.7-2.6,2.6-5c-1-2.2-2.6-3.5-4.6-4.7c-2.2-1.3-4.5-2.5-6.8-3.7
		c-0.2-0.1-0.7,0.1-0.9,0.3c-0.4,0.4-0.9,0.7-1.4,0.8c-0.5,0.1-1.1,0.1-1.6-0.1c-0.4-0.1-0.8-0.4-1-0.8s-0.3-0.8-0.3-1.3
		c0.1-0.7,0.4-1.2,1.3-1.2c1.4,0,3.5-2.2,2.4-3.1c-1.2-1-0.3-0.2-0.6-0.5c-1.7-1.2-1.7-2.7-1.4-4.6c1,0.5,2.2,1,3.4,1.5
		c2.7,1,5.4,2,8.2,3c0.1,0,0.3,0.1,0.4,0.1c1.4,0,1.8-0.6,1.3-1.6c-1-1.7-2.5-2.8-4.2-3.7c-1.6-0.9-3.4-1.6-5-2.6
		c-1.2-0.7-2.2-1.7-3-2.9c-0.8-1.2-1.2-2.5-1.4-3.9c-0.3-3.3,1.6-5.6,4.9-5.7c1.4,0,2.7,0.2,4.1,0.5c0.1,0,0.2,0.1,0.3,0.1
		s0.2,0,0.3-0.1c0.1,0,0.2-0.1,0.3-0.2s0.1-0.2,0.2-0.3c0.6-1.2,0.2-2.8-1.1-3.7c-1.9-1.5-4.2-2-6.4-2.5c-2-0.5-2.7-0.2-2.2-2.8
		c0.3-1.3,0.7-1.7,2-1.4c0.2,0,0.3,0.1,0.6,0.1c-0.6-1-1.1-2-1.6-3c-0.6-1.3-1-2.6-1.2-4c-0.1-1.8,0.7-2.4,2.5-2.3
		c0.2,0,0.5,0,0.9,0.1c-0.6-0.9-1.2-1.8-1.7-2.7c-0.9-1.7-1.8-3.2-1.7-5.1c0.1-1.4,1.1-2.3,2.5-2c1.7,0.4,3.4,1.1,5.1,1.6
		c1.4,0.4,2.8,0.8,4.3,1.1c0.4,0.1,0.8,0.1,1.1,0c0.4-0.1,0.6-0.8,0.4-1.2c-0.1-0.3-0.2-0.7-0.4-0.9c-1.6-2-3.8-3.2-6.1-4.3
		c-3.5-1.7-6-4.1-6.6-8.1c-0.2-1.6-0.1-3.1,1.1-4.3c1.8-1.8,4.6-1.4,6,0.9c1.4,2.1,1.9,4.7,1.3,7.2c-0.1,0.7,0,1.1,0.9,1.4
		c2.3,0.5,3.9,0.3,5.3-0.5c0.3-0.2,0.5-0.4,0.7-0.8c0.2-0.3,0.3-0.6,0.3-1c0-2.3-1-3.6-2.1-5.1c-1.8-2.2-4.1-3.8-6.7-4.9
		c-0.2-0.1-0.5-0.2-0.7-0.3c-0.1-0.1-0.2-0.2-0.2-0.3c0-0.1,0-0.3,0.1-0.4c0.2-0.3,1-0.1,1.4,0.1c3.6,1.7,7.3,3.5,9.1,7.5
		c1.3,2.7,0.9,6.1-0.9,8c-1,1-2,1.5-4.3,1.9c1.1,0.9,2.3,1.8,3.4,2.8c0.7,0.7,1.4,1.5,1.8,2.3c1,2,0.6,4.4-2.4,4.3
		c-2.1-0.1-4.2-0.5-6.2-1.1c-1.8-0.5-2.9-1-4.3-1.4c-0.1,0-0.1,0-0.2,0c-0.2,0-0.4,0-0.6,0c-0.2,0.1-0.4,0.2-0.5,0.3
		c-0.1,0.1-0.3,0.3-0.3,0.5c-0.1,0.2-0.1,0.4,0,0.6c0,0.1,0.1,0.2,0.1,0.3c1.3,2.7,3.6,4.2,6.3,5.1c2.3,0.8,4.5,1.4,6.8,2.1
		c1.6,0.5,1.6,0.5,1.6,2.2 M3677.9,1354.1c-0.6,0.2-1.2,0.7-1.5,1.3c-0.2,0.6-0.3,1.2-0.2,1.9c0.1,0.6,0.3,1.2,0.7,1.7
		c1.8,2.2,5.5,3.9,9.4,4.1c1,0.1,2.9-0.1,3.3-1.1c0.2-0.7,0.2-1.4,0-2.1s-0.7-1.3-1.3-1.6c-1.2-1-2.5-1.8-3.9-2.6
		c-0.2-0.1-0.9,0.1-1.2,0.3C3681,1357.5,3678.7,1356.9,3677.9,1354.1 M3681.7,1312.1c-0.2-0.8-0.7-1.6-1.3-2.2s-1.3-1.1-2.1-1.4
		c-0.7-0.2-1.7-0.6-2.1,0.2c-0.3,0.7-0.3,1.4,0,2.1c0.7,1.8,2.2,3,3.9,3.9C3681.5,1315.3,3682.2,1314.4,3681.7,1312.1
		 M3676.9,1383.9c-1.1,0-1.5,0.8-1,2.1c0.4,1,1,1.8,1.7,2.5s1.6,1.3,2.6,1.6c0.7,0.2,1.1,0,1.2-0.6c0.1-0.7,0-1.3-0.2-1.9
		C3680.5,1385.5,3678.5,1383.8,3676.9,1383.9 M3681.1,1401.3v8.2c-0.9-0.1-1.8-0.5-2.4-1.2c-0.6-0.7-1-1.5-1.1-2.5
		c0-3.3,0-6.5,0.1-9.8c0-0.9,0.4-1.2,1.2-0.8c0.7,0.5,1.3,1.1,1.9,1.7c0.4,0.3,0.7,0.9,1.1,1c7.4,2.7,10.8,9,10.4,16.4
		c-0.1,2.2-0.4,4.4-1.6,6.3c-2.2,3.3-5.5,4.3-9.3,3.9c-7.1-0.7-12.7-4.2-16.8-10c-1.3-1.8-2.2-3.8-2.7-5.9c-0.5-2.2-0.5-4.4-0.1-6.5
		c0.1-0.4,0.2-0.9,0.4-1.3c0.7-1.5,1.6-2.8,3.4-3c0.9-0.1,1.8,0,2.6,0.4s1.5,1,2,1.7c1.1,1.3,1.6,2.9,1.4,4.5c0,0.5-0.2,1-0.6,1.4
		c-0.5,0.3-1,0.3-1.5,0.2c-0.3-0.1-0.5-0.7-0.5-1.1c0-2.3-1.5-4.2-3.4-4.2c-1.3,0-1.9,0.4-2.2,1.7c-0.4,2.2-0.1,4.4,1.1,6.3
		c2.6,4.5,6.7,7.4,11.5,9.3c2.5,1.1,5.1,1.6,7.8,1.5c3.2-0.1,6-1.5,6.4-5.6c0.5-6.1-3.5-11.3-8.4-12.7
		C3681.6,1401.3,3681.4,1401.3,3681.1,1401.3 M3704,1422.5c0.2-0.4,0.4-0.9,0.4-1.3c0-0.8-0.4-1.2-1-1.2s-0.8,0.3-1.1,1.1
		c-0.3,0.9-0.8,1.5-1.6,1.5s-1.6-0.7-1.6-1.9c0-0.4,0.1-0.9,0.3-1.3l0.6,0.2c-0.2,0.3-0.3,0.7-0.3,1.1c0,0.8,0.5,1.1,0.9,1.1
		c0.5,0,0.8-0.4,1.1-1.1c0.4-1,0.8-1.5,1.7-1.5c0.8,0,1.7,0.7,1.7,2c0,0.5-0.1,1-0.4,1.5L3704,1422.5z M3699.1,1412.8v0.7h5.8v-0.7
		H3699.1z M3702.4,1401.9c-0.8,0-1.8,0.1-2.5,0.1c0.7,0.2,1.4,0.4,2.2,0.7l2.8,1v0.6l-2.7,0.9c-0.8,0.3-1.5,0.5-2.2,0.7
		c0.7,0,1.7,0.1,2.6,0.1l2.5,0.2v0.8l-5.8-0.4v-1l2.8-1c0.7-0.2,1.3-0.4,1.9-0.6c-0.6-0.2-1.2-0.3-1.9-0.6l-2.8-1v-0.9l5.8-0.4v0.7
		L3702.4,1401.9z M3699.2,1395.3c-0.1-0.5-0.1-0.9-0.1-1.4c0-0.6,0.1-1.1,0.5-1.6c0.1-0.2,0.3-0.3,0.5-0.4s0.4-0.1,0.7-0.1
		c0.4,0,0.9,0.1,1.2,0.4c0.2,0.2,0.4,0.5,0.5,0.8s0.1,0.6,0.1,0.9c0,0.2,0,0.4,0,0.6h2.3v0.7L3699.2,1395.3L3699.2,1395.3z
		 M3702,1394.5c0.1-0.2,0.1-0.4,0.1-0.6c0-0.9-0.4-1.4-1.2-1.4s-1.1,0.5-1.1,1.3c0,0.2,0,0.5,0.1,0.7H3702z M3699.1,1386v-0.7h5.1
		v-2.5h0.6v3.2H3699.1z M3704.9,1376.8h-2.4l-3.3,1.8v-0.8l1.6-0.8c0.4-0.2,0.8-0.4,1.2-0.6c-0.4-0.2-0.8-0.4-1.2-0.6l-1.6-0.8v-0.8
		l3.3,1.9h2.4V1376.8z M3704.6,1357.9c0.2,0.6,0.3,1.2,0.3,1.8c0,0.4,0,0.8-0.1,1.2c-0.1,0.4-0.3,0.7-0.6,1s-0.6,0.5-1,0.6
		s-0.8,0.2-1.2,0.2s-0.8-0.1-1.2-0.2c-0.4-0.2-0.7-0.4-1-0.7c-0.3-0.3-0.5-0.7-0.6-1c-0.1-0.4-0.2-0.8-0.2-1.2c0-0.5,0.1-1,0.3-1.4
		l0.6,0.2c-0.2,0.4-0.3,0.8-0.3,1.3c0,0.3,0,0.6,0.1,0.9s0.3,0.5,0.5,0.8c0.2,0.2,0.5,0.4,0.8,0.5s0.6,0.2,0.9,0.1
		c0.3,0,0.6,0,0.9-0.1s0.6-0.3,0.8-0.5s0.4-0.5,0.5-0.8s0.2-0.6,0.2-0.9s0-0.7-0.2-1h-1.7v1.2h-0.6v-1.9L3704.6,1357.9
		L3704.6,1357.9z M3702.2,1349.1v2.2h2.1v-2.5h0.6v3.2h-5.8v-3.1h0.6v2.4h1.8v-2.2H3702.2z M3704.9,1343.2h-5.8v-0.8l2.9-1.8
		c0.6-0.4,1.2-0.7,1.9-1c-0.8,0.1-1.5,0.1-2.4,0.1h-2.4v-0.7h5.8v0.8l-2.9,1.8c-0.6,0.4-1.3,0.8-1.9,1.1c0.7-0.1,1.4-0.1,2.4-0.1
		h2.5L3704.9,1343.2z M3699.1,1332.2h3.4c1.3,0,1.8-0.6,1.8-1.3c0-0.7-0.6-1.4-1.8-1.4h-3.4v-0.8h3.4c1.8,0,2.5,0.9,2.5,2.2
		s-0.7,2.1-2.4,2.1h-3.4L3699.1,1332.2z M3699.1,1322v0.7h5.8v-0.7H3699.1z M3704.9,1316h-5.8v-0.8l2.9-1.8c0.6-0.4,1.2-0.7,1.9-1
		c-0.8,0.1-1.5,0.1-2.4,0.1h-2.4v-0.7h5.8v0.8l-2.9,1.8c-0.6,0.4-1.3,0.8-1.9,1.1c0.7,0,1.4-0.1,2.4-0.1h2.5L3704.9,1316z
		 M3702.2,1302.8v2.2h2.1v-2.5h0.6v3.2h-5.8v-3.1h0.6v2.4h1.8v-2.2H3702.2z"/>
</g>
<g id="файні_льоди">
	<path class="st0" d="M3622,2423c0-29.6,23.9-53.5,53.5-53.5s53.5,23.9,53.5,53.5v62c0,29.6-23.9,53.5-53.5,53.5
		s-53.5-23.9-53.5-53.5V2423z"/>
	<path class="st1" d="M3670.7,2489.3c1.6,0.3,3,0.5,4.2,0.6c0.9,0.1,1.8,0,2.7-0.2c0.8-0.2,1.5-0.7,1.9-1.4c0.5-0.9,0.3-1.3-0.6-1.4
		c-2.5-0.4-5.7-1.1-9-1.9c-2.7-9.4-9.7-15.5-17-14.6c-2.7,0.4-5,3.6-4.5,8c-0.7,0.1-1.3,0.4-1.9,0.8c-0.7,0.7-0.7,1.5,0.4,2.2
		c0.4,0.2,0.8,0.4,1.3,0.6c0,0.5,0.2,1,0.3,1.6c1.9,9.1,10.4,16.9,18.2,14.1C3669.3,2496.8,3671.2,2494.3,3670.7,2489.3z
		 M3653.3,2479.4c-1.1-0.5-2.3-0.8-3.6-1c-0.1-0.4,0-0.8,0.1-1.2s0.3-0.8,0.6-1.1s0.6-0.6,1-0.8s0.8-0.3,1.2-0.3
		c5.6-0.9,12,3.8,14.8,9.2C3662.6,2483,3657.9,2481.3,3653.3,2479.4z M3650.6,2483.2c5.9,2.5,11.9,4.4,18.2,5.7
		c0.2,1-0.1,1.9-0.6,2.7c-0.6,0.8-1.4,1.3-2.4,1.5C3660.9,2494.7,3653,2489.2,3650.6,2483.2z M3670.1,2463.9c1.5-0.5,2.5-1.9,2.3-4
		c-0.3-1.8-1.1-3.4-2.5-4.7c0.6-0.2,1.1-0.6,1.4-1.1c0.3-0.5,0.5-1.2,0.4-1.8c-0.2-2.2-1.2-4.3-2.9-5.8c1.9-0.2,3.1-1.4,3.3-4
		c0-1.5-0.4-2.9-1.3-4.2c0.4-0.1,0.8-0.4,1.1-0.6c0.7-0.6,0.5-1.2-0.1-1.6c-2.2-1.3-4.3-2.7-6.3-4.2l-0.3-4.3c0.5,0.4,1.1,0.7,1.6,1
		c0.8,0.5,1.8,0.8,2.7,1c2.1,0.3,3.7-0.8,4.1-3.3c0.2-2-0.2-4-1.2-5.8c1.4-0.2,2.4-1.2,2.9-3.1c0.2-1.4,0.1-2.9-0.3-4.3
		c-0.5-1.4-1.3-2.6-2.3-3.6c-0.3-0.4-0.8-0.7-1.2-0.8c-0.5-0.2-1-0.2-1.5-0.2c-0.9,0.2-1.1,0.8-0.4,1.3c2.4,2.1,4.6,5,4.2,6.8
		c-0.1,0.5-0.5,0.6-1.2,0.4c-0.9-0.2-1.6-0.6-2.4-1.2c-1.5-1.1-4.1-3.9-5.6-5.3c-1.8-1.7-3.6-1.8-4.7-1.1c-0.8,0.5-0.8,1.1-0.2,2
		c2.2,2.7,4.7,5.1,7.5,7.2c0.1,0.1,0.1,0.2,0.2,0.2c2.5,2,4.9,5,4.6,6.8c-0.1,0.4-0.5,0.5-1.1,0.4c-1.3-0.2-3.6-1.7-6-3.9
		c-2-1.8-3.4-3-4.8-3.2c-0.4-0.1-0.8-0.1-1.2,0s-0.8,0.2-1.1,0.4c-0.7,0.5-0.8,1.1,0,2c1.5,1.7,3.2,3.3,5.1,4.6
		c0.2,1.4,0.3,2.8,0.4,4.4c-1-0.8-1.9-1.5-2.6-2.1c-0.6-0.5-1.3-0.9-2.1-1s-1.6,0.1-2.3,0.4c-0.8,0.4-1,1.1-0.2,1.8
		c2.4,2.3,4.9,4.4,7.6,6.2c0.1,1.3,2.1,2.4,2.3,1.5c0.3,0.2,0.7,0.4,1,0.5c2,1.6,3.7,3.3,3.6,4.5c0,0.6-0.5,0.8-1.2,0.8
		c-1.6,0-4.5-1.9-6.4-3.4c-2.4-1.8-4.1-2.9-5.6-3c-0.8-0.1-1.6,0.1-2.3,0.6c-0.8,0.5-0.6,1.3,0.1,2.1c1.8,1.8,4.7,3.3,8.7,6.1
		c3.3,2.4,6.2,4.7,6.3,5.9c0,1-1.6,0.9-3.3,0.1c-3.3-1.5-8.2-5-9.9-5c-0.7,0-1.4,0.2-2,0.7c-0.2,0.1-0.3,0.3-0.4,0.5
		c-0.1,0.2-0.1,0.4-0.1,0.6c0,0.2,0,0.4,0.1,0.6c0.1,0.2,0.2,0.3,0.4,0.5c3.1,2.5,6.6,4.6,10.3,6c2.7,1.4,5.5,3.3,5.6,4.8
		c0,0.4-0.3,0.6-1,0.7c-2.8,0.3-7.7-3.3-10.1-4.4c-2.4-1.2-4.1-0.6-4.9,0.2c-0.1,0.1-0.3,0.3-0.3,0.5c-0.1,0.2-0.1,0.4,0,0.6
		c0,0.2,0.1,0.4,0.3,0.5c0.1,0.2,0.3,0.3,0.5,0.4c0.5,0.3,0.9,0.6,1.4,0.8c-0.6,0.3-1.1,0.8-1.4,1.4c-0.3,0.6-0.4,1.3-0.3,2
		c0.2,2.5,2.6,6.3,8,9.3c2,1.2,4.3,1.7,6.6,1.5c2.5-0.4,4-2.1,3.7-4.6c-0.2-1.7-1.8-3.5-3.1-4.7 M3671.3,2468.4
		c0.1,0.4-0.4,0.7-1.2,0.8c-2,0.1-4.1-0.4-5.8-1.4c-3.8-1.9-6.7-5-6.8-5.9c0-0.5,0.3-0.6,0.8-0.6c1.1-0.1,3.2,0.6,6.3,2.1
		C3668.3,2465.2,3671.1,2466.9,3671.3,2468.4 M3653.5,2441.1c0.1-1.5-0.3-3-1.1-4.2c-0.2-0.4-0.6-0.7-1-0.9s-0.9-0.3-1.3-0.2
		c-0.7,0.3-0.9,0.8-0.2,1.6c0.4,0.4,0.7,0.8,0.9,1.3s0.3,1,0.3,1.5c0,0.6-0.1,1.1-0.4,1.6c-0.3,0.5-0.7,0.9-1.2,1.1
		c-0.1,0.1-0.2,0.2-0.3,0.3s-0.1,0.3-0.2,0.4c0,0.1,0,0.3,0,0.5c0,0.1,0.1,0.3,0.2,0.4c0.1,0.2,0.4,0.4,0.6,0.6
		c0.2,0.1,0.5,0.2,0.8,0.3c0.6,0,1.2-0.3,1.7-0.8C3653.1,2443.6,3653.5,2442.4,3653.5,2441.1z M3688.5,2473.8
		c0.1,0.6,0.3,1.2,0.5,1.7c-1.6-0.6-3.4-1.1-4.5-0.9s-2.5,1.4-2.2,2.6c0,0.2,0.1,0.5,0.3,0.6c0.1,0.2,0.3,0.3,0.6,0.4
		c6,2.5,8.9,3.4,11.1,3.9c3.1,1.1,6.3,2.8,6.7,4.4c0.1,0.3-0.4,0.6-1,0.8c-2,0.6-8.5-0.2-11.8-0.9c-0.6-0.2-1.3-0.2-2,0
		c-0.9,0.2-1.9,2.1-1.5,3.6c0.1,0.3,0.2,0.5,0.4,0.7s0.4,0.3,0.6,0.4c2.1,0.9,6,2,9.1,3c4.3,1.5,6.3,2.1,8.1,2.9
		c1.2,0.6,1.4,0.8,1.5,1s-0.1,0.5-0.5,0.7c-1.5,0.5-3.2,0.5-4.7-0.1c-0.2-0.1-0.3-0.1-0.5-0.1c-0.2,0.1-0.5,0.6-0.1,1.7
		c0.3,0.6,0.6,1.1,1.2,1.5c0.5,0.4,1.1,0.7,1.8,0.7c1.2,0.3,2.5,0.2,3.6-0.3c2.1-0.9,2.1-2.7,1.5-4.2c-0.4-1.2-1.2-2.2-2.3-2.9
		c-2.7-1.4-5.5-2.6-8.4-3.5c1.7,0.2,3.4,0.2,5.1-0.1c2-0.7,2.6-2.4,1.9-4.7c-0.8-2.1-2.1-3.9-3.9-5.3c1.2-0.9,1.8-2.6,1.3-4.8
		c-1.1-4.8-5.1-8-9.1-7.4C3689.2,2469.5,3688,2471.4,3688.5,2473.8 M3698.4,2476.6c0.1,0.5-0.4,1-1.3,1.2c-1.8,0.2-3.7-0.2-5.3-1.1
		c-0.6-0.5-1.1-1.2-1.2-1.9c-0.1-0.6,0.5-1.1,1.4-1.3C3694.5,2473.1,3698.1,2474.9,3698.4,2476.6z M3692.1,2409.8
		c2.3,2.3,4.7,5.2,4.5,6.8c-0.1,0.6-0.6,0.8-1.3,0.7c-1.6-0.3-4.2-2.6-5.9-4.4c-2.1-2.2-3.7-3.6-5.1-3.9c-0.4-0.1-0.8-0.1-1.2-0.1
		c-0.4,0.1-0.8,0.2-1.1,0.4c-0.8,0.5-0.8,1.4-0.1,2.2c1.6,2.2,4.2,4.1,7.8,7.6c3,3,5.6,5.9,5.5,7.1c-0.1,1-1.7,0.8-3.3-0.3
		c-3.1-2-7.5-6.3-9.2-6.6c-0.4-0.1-0.7,0-1.1,0.1c-0.4,0.1-0.7,0.2-0.9,0.5c-0.2,0.1-0.3,0.3-0.4,0.5c-0.1,0.2-0.2,0.4-0.2,0.6
		c0,0.2,0,0.4,0.1,0.6c0.1,0.2,0.2,0.4,0.3,0.6c2.7,3,5.8,5.5,9.3,7.5c2.1,2.2,3.8,4.7,5.1,7.5c-3-1.7-6-3.5-8.8-5.6
		c-2-1.4-3.1-2.1-4.3-2.1c-0.8-0.1-1.6,0.2-2.2,0.7c-0.2,0.1-0.3,0.3-0.4,0.5c-0.1,0.2-0.1,0.4-0.1,0.7c0,0.2,0.1,0.5,0.2,0.6
		c0.1,0.2,0.3,0.4,0.5,0.5c0.5,0.3,0.9,0.7,1.2,0.9c-0.6,0.3-1.1,0.8-1.5,1.4c-0.3,0.6-0.5,1.3-0.5,1.9c-0.2,4.6,5.2,11.5,10.6,13.1
		c2.2,1.4,4.3,2.6,4.4,4.5c0,0.3,0,0.5-0.2,0.7c-1.4-1.1-4.8-3.5-9-3.3c-0.6,0-1.2,0.2-1.8,0.5c-0.5,0.3-1,0.8-1.3,1.3
		c-0.2,0.3-0.4,0.6-0.7,0.8c-0.6,0.5-1.1,1.1-1.3,1.8c-0.3,0.7-0.3,1.5-0.2,2.2c0.4,4.9,8.3,10,12.9,9.2c1.3-0.2,2.6-0.8,3.4-1.9
		c0.6-0.7,1-1.5,1.3-2.3c0.3-0.9,0.3-1.8,0.2-2.7c-0.1-0.6-0.2-1.1-0.4-1.7c-0.4-0.9-0.9-1.7-1.6-2.5c0.4-0.9,0.6-1.9,0.5-2.9
		c-0.1-1.5-0.8-3-1.9-4c0.7-0.4,1.4-0.9,1.8-1.6c0.4-0.7,0.6-1.5,0.5-2.4c0-1.3-0.4-2.5-1.1-3.6l1.4,0.6c1.8,5.8,6.5,10,10.3,9.6
		c1.2-0.2,2.3-0.7,3.2-1.5c0.5-0.3,0.8-0.8,1-1.4c0.2-0.6,0.1-1.1-0.1-1.7c-1.8-3.4-8.2-6.5-13.6-9.2c-0.7-2.7-1.9-5.3-3.4-7.6
		c0.8,0,1.6-0.4,2.1-0.9c0.6-0.6,0.9-1.4,0.9-2.2c0.1-2.4-0.7-4.7-2.2-6.5c1.9,0,3.3-1.2,3.8-4c0.1-1.5-0.1-3.1-0.6-4.5
		c-0.6-1.4-1.4-2.7-2.5-3.8c-0.3-0.4-0.8-0.6-1.3-0.8s-1-0.2-1.5-0.1C3691.6,2408.3,3691.5,2409.2,3692.1,2409.8 M3695.4,2462.2
		c0.1,0.9-1,1.2-1.7,1.2c-1.7,0.2-3.5-0.1-5.1-0.8c1.9-0.4,3.7-1.6,4.8-3.2C3694.4,2460.1,3695.1,2461.1,3695.4,2462.2 M3691.4,2458
		c-1,0.7-2.2,1.1-3.4,1.1c-3.3,0.4-5.7-2-5.8-3.1c0-0.2,0.9-0.2,1.2-0.3C3686.4,2455.5,3689.8,2457.1,3691.4,2458 M3704.8,2446.6
		c2.3,1.3,3.7,2.3,3.4,2.7s-2.4,0-4.5-1.2c-1.8-1-3.3-2.5-4.4-4.2C3701.2,2444.8,3703,2445.6,3704.8,2446.6z M3694.4,2445.1
		c0,0.4-0.5,0.6-1.3,0.7c-5,0.3-11.7-7.6-11.5-9.5c0-0.4,0.3-0.5,0.8-0.5c1.1,0,3.1,1,6,3.1
		C3691.8,2441.3,3694.4,2443.5,3694.4,2445.1 M3656.7,2403.5c0.5,0,1,0.2,1.4,0.5s0.7,0.7,0.9,1.2s0.2,1,0.1,1.5
		c-0.1,0.5-0.4,0.9-0.8,1.3c-0.4,0.3-0.8,0.6-1.3,0.6c-0.5,0.1-1,0-1.4-0.2s-0.8-0.6-1.1-1s-0.4-0.9-0.3-1.4c0-0.3,0.1-0.6,0.2-0.9
		c0.1-0.3,0.3-0.6,0.6-0.8s0.5-0.4,0.9-0.5C3656.1,2403.6,3656.4,2403.5,3656.7,2403.5z"/>
</g>
<g id="техно">
	<path class="st0" d="M3622,2775c0-29.6,23.9-53.5,53.5-53.5s53.5,23.9,53.5,53.5v62c0,29.6-23.9,53.5-53.5,53.5
		s-53.5-23.9-53.5-53.5V2775z"/>
	<path class="st1" d="M3667.7,2794.6c0-0.8-0.3-1.5-0.9-2.1c-0.6-0.6-1.3-0.9-2.1-0.9s-1.5,0.2-2.1,0.8c-0.6,0.5-0.9,1.2-0.9,2
		s0.3,1.5,0.9,2.1c0.6,0.6,1.3,0.9,2.1,0.9s1.5-0.2,2.1-0.8C3667.4,2796,3667.7,2795.4,3667.7,2794.6z M3663.2,2786.3
		c-0.5,0.5-0.8,1-0.8,1.7s0.3,1.3,0.8,1.8s1.1,0.8,1.8,0.8s1.3-0.2,1.8-0.7s0.7-1,0.7-1.7s-0.2-1.3-0.7-1.8s-1.1-0.8-1.8-0.8
		S3663.7,2785.8,3663.2,2786.3z M3676.7,2792.3v-4.1l11.5,7.9l-7.9-1.8v3.9l-10.8-3.9v-6L3676.7,2792.3z M3676.2,2782.9l-6.6,4.4
		v-4.1l5.1-3.3v-1.8h-5.3v-3.7h5.3v-1.9l-5.1-3.3v-4l6.6,4.4l7-4.6v4.3l-5.1,3.3v1.8h5.1v3.7h-5.1v1.8l5.1,3.3v4.3L3676.2,2782.9z
		 M3679.7,2764.9c-2.7,0-4.2-2.3-4.4-6.8c-0.1-1.8-0.5-2.6-1.2-2.6c-1,0-1.7,1-1.7,2.5c0,1.4,0.7,2.5,2,2.8v3.5
		c-3.1-0.4-5-2.9-5-6.4s2.2-5.9,5.6-5.9h5v-1.6h3.3v4.7h-1.7c1.2,1.1,2,3.1,2,5.2C3683.5,2763.2,3682,2765,3679.7,2764.9
		 M3677,2755.4h-0.2c0.3,0.3,0.5,1.4,0.7,2.6c0.2,2.3,0.8,3.2,1.7,3.2s1.3-0.6,1.3-1.7C3680.6,2757.3,3678.9,2755.4,3677,2755.4
		 M3669.3,2749.2v-3.7h5.3v-1.8l-5.1-3.7v-4.1l6.6,4.8l7.1-5.1v4.4l-5.1,3.7v1.7h5.1v3.7h-13.9V2749.2z M3673.1,2867.2v5.1h-3.6
		v-13.9h3.6v5.1h10.1v3.7L3673.1,2867.2L3673.1,2867.2z M3676.5,2858.1c-4.2,0-7.2-3.2-7.2-7.3s2.9-7.1,7-7.1c0.4,0,0.8,0,1.1,0.1
		v10.7c1.6-0.3,2.9-1.7,2.9-3.8c0-1.2-0.5-2.3-1.3-2.8v-3.7c2.3,0.5,4.4,3,4.4,6.7C3683.5,2855.1,3680.6,2858.1,3676.5,2858.1
		 M3672.4,2850.9c0,1.7,1,3.1,2.6,3.5v-7C3673.4,2847.8,3672.4,2849.1,3672.4,2850.9z M3676.3,2839.6l-6.7,5.1v-4.4l4.2-3.2
		l-4.2-3.2v-4.3l6.6,5.1l7-5.3v4.4l-4.6,3.4l4.6,3.5v4.2L3676.3,2839.6z M3669.6,2828.1v-3.7h5.1v-5.7h-5.1v-3.7h13.6v3.7h-5.1v5.7
		h5.1v3.7H3669.6z M3676.4,2813.9c-4.1,0-7.1-3.1-7.1-7.4c0-4.2,3-7.4,7.1-7.4s7.1,3.2,7.1,7.4S3680.4,2813.9,3676.4,2813.9z
		 M3676.4,2803c-2.1,0-3.6,1.5-3.6,3.5s1.5,3.5,3.6,3.5s3.6-1.5,3.6-3.5S3678.5,2803,3676.4,2803z"/>
</g>
<g id="курапрокс">
	<path class="st0" d="M3622,3127c0-29.6,23.9-53.5,53.5-53.5s53.5,23.9,53.5,53.5v62c0,29.6-23.9,53.5-53.5,53.5
		s-53.5-23.9-53.5-53.5V3127z"/>
	<path class="st1" d="M3675.2,3096.6l10.5,5.9v-2.5l-8.3-4.5l8.3-4.6v-2.5l-10.5,5.9l-9.8-5.4v2.5l7.6,4.1l-7.6,4v2.5L3675.2,3096.6
		z M3667.2,3114.1c0-4.6,3.8-8.1,8.4-8.1c4.6,0,8.4,3.6,8.4,8.1s-3.8,8.1-8.4,8.1C3671,3122.3,3667.2,3118.7,3667.2,3114.1z
		 M3665.1,3114.1c0,5.7,4.7,10.3,10.5,10.3s10.4-4.7,10.4-10.3c0-5.7-4.6-10.3-10.4-10.3C3669.8,3103.8,3665.1,3108.5,3665.1,3114.1
		 M3676.8,3135.4l8.9-6v-2.7l-9.1,6.3c-0.3-3.1-2.5-5-5.6-5c-4.6,0-5.6,3.5-5.6,7.3v2.9h20.2v-2.2h-8.9v-0.6H3676.8z M3667.5,3135.9
		v-0.6c0-2.7,0.3-5.1,3.6-5.1c3.1,0,3.6,2.5,3.6,5v0.7L3667.5,3135.9L3667.5,3135.9z M3667.5,3150.1v-0.8c0-2.6,0.2-5.2,3.5-5.2
		c2.9,0,3.6,2.1,3.6,4.5v1.5H3667.5z M3676.8,3150.1v-1.6c0-1.7-0.2-3.4-1.3-4.7s-2.7-1.9-4.4-1.9c-1.8,0-3.6,0.8-4.6,2.2
		s-1.1,3.2-1.1,4.9v3.3h20.2v-2.2H3676.8L3676.8,3150.1z M3677.8,3160.9v6.7l-8.1-3.4L3677.8,3160.9z M3679.9,3160l5.8-2.3v-2.4
		l-21.2,8.9l21.2,9.2v-2.4l-5.7-2.4L3679.9,3160L3679.9,3160z M3676.8,3183.6l8.9-6v-2.7l-9.1,6.3c-0.3-3.1-2.5-5-5.6-5
		c-4.6,0-5.6,3.5-5.6,7.3v2.9h20.2v-2.2h-8.9v-0.6H3676.8z M3667.5,3184.2v-0.7c0-2.7,0.3-5.1,3.6-5.1c3.1,0,3.6,2.5,3.6,5v0.7h-7.2
		V3184.2z M3665.4,3203.2v2.2h12.7c2.3,0,4.2-0.2,5.8-1.9c1.3-1.3,2.1-3.3,2.1-5.1c0-1-0.2-2-0.6-2.9c-0.4-0.9-1-1.8-1.7-2.4
		c-1.7-1.6-3.4-1.7-5.6-1.7h-12.7v2.2h12c1.6,0,3.4-0.1,4.6,1c1.1,0.9,1.8,2.5,1.8,3.9s-0.7,3.1-1.9,4c-1.3,0.9-3,0.9-4.5,0.9h-12
		V3203.2z M3667.1,3209.1c-1.3,1.7-2,3.8-2,5.9c0,2.7,1.1,5.4,3.1,7.3c2,1.9,4.6,3,7.4,3c5.7,0,10.4-4.7,10.4-10.3
		c0-2.1-0.7-4.2-2-5.9h-2.8c1.6,1.6,2.7,3.8,2.7,6c0,4.4-3.9,8.1-8.4,8.1s-8.4-3.6-8.4-8c0-1.1,0.3-2.3,0.7-3.3c0.5-1,1.1-2,2-2.8
		H3667.1z"/>
</g>
<g id="епіцентр">
	<path class="st0" d="M3444.9,3934.5H7.6V2295h672.5v-879.1H3.2V0.5h3441.7V3934.5z"/>
	<path class="st1" d="M1090,2039.5h77.1v22.6h-51.6v37.1h47.8v21.8h-47.8v54.7H1090V2039.5z M1183.4,2105.6
		c-0.1-9.6,1.5-19.1,4.7-28.1c2.9-8,7.4-15.3,13.2-21.6c5.8-6.1,12.8-10.8,20.5-13.9c8.3-3.3,17.2-4.9,26.1-4.8h2.2
		c9-0.1,17.8,1.5,26.2,4.8c7.7,3.1,14.7,7.9,20.4,14c5.8,6.3,10.3,13.7,13.3,21.7c3.3,8.9,4.9,18.4,4.7,27.9v3.9
		c0.1,9.5-1.5,19-4.7,27.9c-3,8-7.5,15.4-13.3,21.6c-5.7,6.1-12.7,10.9-20.4,14c-8.3,3.3-17.2,4.9-26.2,4.8h-2.5
		c-8.8,0.1-17.6-1.6-25.8-4.8c-7.7-3.1-14.7-7.9-20.4-14c-5.8-6.3-10.4-13.6-13.3-21.6c-3.3-8.9-4.9-18.4-4.8-27.9L1183.4,2105.6z
		 M1212.7,2128.4c1.8,5.2,4.5,10.1,8,14.4c3.3,3.9,7.4,7,12.1,9.1c4.8,2.2,10,3.3,15.3,3.2h2c5.3,0.1,10.5-1,15.3-3.2
		c4.6-2.1,8.7-5.3,12-9.1c3.5-4.2,6.2-9.1,7.8-14.4c1.9-6.1,2.9-12.5,2.8-19v-3.9c0.1-6.4-0.9-12.8-2.8-18.9
		c-1.6-5.2-4.3-10.1-7.8-14.3c-3.3-3.8-7.4-6.9-12-9.1c-4.8-2.3-10-3.4-15.3-3.3h-1.9c-5.3-0.1-10.5,1.1-15.3,3.3
		c-4.6,2.2-8.8,5.3-12.2,9.1c-3.6,4.2-6.3,9.1-8.1,14.3c-2,6.1-3,12.5-2.9,18.9v3.9C1209.6,2115.9,1210.6,2122.3,1212.7,2128.4z
		 M1330.3,2105.6c-0.1-9.6,1.4-19.1,4.7-28.1c2.9-8,7.4-15.3,13.2-21.6c5.8-6.1,12.8-10.8,20.5-13.9c8.3-3.3,17.1-4.9,26-4.8h2.3
		c8.9-0.1,17.8,1.5,26.2,4.8c7.7,3.1,14.7,7.9,20.4,14c5.8,6.3,10.3,13.7,13.3,21.7c3.3,8.9,4.9,18.4,4.7,27.9v3.9
		c0.1,9.5-1.5,19-4.7,27.9c-3,8-7.5,15.4-13.3,21.6c-5.7,6.1-12.7,10.9-20.4,14c-8.3,3.3-17.1,4.9-26.1,4.8h-2.5
		c-8.8,0.1-17.6-1.6-25.8-4.8c-7.7-3.1-14.7-7.9-20.4-14c-5.8-6.3-10.4-13.6-13.3-21.6c-3.3-8.9-4.9-18.4-4.8-27.9L1330.3,2105.6z
		 M1359.5,2128.4c1.8,5.2,4.5,10.1,8.1,14.4c3.3,3.9,7.4,7,12.1,9.1c4.8,2.2,10,3.3,15.3,3.2h1.9c5.3,0.1,10.5-1,15.3-3.2
		c4.6-2.1,8.7-5.3,12-9.1c3.5-4.2,6.2-9.1,7.8-14.4c1.9-6.1,2.9-12.5,2.8-19v-3.9c0.1-6.4-0.9-12.8-2.8-18.9
		c-1.6-5.2-4.3-10.1-7.8-14.3c-3.3-3.9-7.4-6.9-12-9.1c-4.8-2.3-10-3.4-15.3-3.3h-1.9c-5.3-0.1-10.5,1.1-15.3,3.3
		c-4.6,2.2-8.8,5.3-12.2,9.1c-3.6,4.2-6.3,9.1-8,14.3c-2,6.1-3,12.5-2.9,18.9v3.9C1356.5,2115.9,1357.4,2122.3,1359.5,2128.4z
		 M1485.3,2039.5h42.7c9.7-0.1,19.4,1.5,28.5,4.7c8.2,2.9,15.7,7.4,22.1,13.2c6.2,5.8,11,12.8,14.2,20.6c3.4,8.5,5.1,17.5,4.9,26.7
		v3.9c0.1,9.4-1.6,18.6-5,27.4c-3.2,8-8,15.2-14.2,21.2c-6.4,6-13.9,10.7-22.1,13.7c-9.1,3.4-18.8,5-28.6,4.9h-42.7v-136.3H1485.3z
		 M1528.3,2152.8c6.2,0.1,12.3-1,18.1-3.2c5.1-2,9.6-5,13.4-8.9c3.8-4,6.6-8.8,8.4-14.1c2-6,3-12.3,2.9-18.7v-3.9
		c0.1-6-0.9-11.9-2.9-17.6c-1.8-5-4.6-9.6-8.4-13.3c-3.8-3.8-8.3-6.6-13.4-8.3c-5.8-2-11.9-3-18.1-2.9h-17.7v91.1L1528.3,2152.8z
		 M1882.3,2039.5h25.4v55.4h53.2v-55.4h25.5v136.1H1961v-58.2h-53.2v58.2h-25.4L1882.3,2039.5L1882.3,2039.5z M2010.1,2105.6
		c-0.1-9.6,1.5-19.1,4.7-28.1c2.9-8,7.4-15.3,13.2-21.6c5.8-6,12.8-10.8,20.5-13.9c8.3-3.3,17.2-4.9,26.1-4.8h2.3
		c8.9-0.1,17.8,1.6,26.1,4.8c7.7,3.2,14.7,7.9,20.4,14c5.8,6.3,10.3,13.7,13.3,21.7c3.3,8.9,4.9,18.4,4.8,27.9v3.9
		c0.1,9.5-1.5,18.9-4.8,27.9c-3,8-7.5,15.4-13.3,21.6c-5.7,6.1-12.7,10.9-20.4,14c-8.3,3.3-17.1,4.9-26.1,4.8h-2.5
		c-8.8,0.1-17.6-1.6-25.8-4.8c-7.7-3.1-14.7-7.9-20.4-14c-5.8-6.3-10.4-13.6-13.3-21.6c-3.3-8.9-4.9-18.4-4.8-27.9V2105.6z
		 M2039.4,2128.4c1.8,5.2,4.5,10.1,8,14.4c3.3,3.9,7.4,7,12.1,9.1c4.8,2.2,10.1,3.3,15.4,3.2h1.9c5.3,0.1,10.5-1,15.3-3.2
		c4.6-2.1,8.8-5.3,12.1-9.1c3.5-4.3,6.2-9.1,7.8-14.4c1.9-6.1,2.9-12.5,2.8-18.9v-3.9c0.1-6.4-0.9-12.8-2.8-18.9
		c-1.6-5.2-4.3-10.1-7.8-14.3c-3.3-3.9-7.4-6.9-12.1-9.1c-4.8-2.3-10-3.4-15.3-3.3h-1.9c-5.3-0.1-10.6,1.1-15.4,3.3
		c-4.6,2.2-8.8,5.3-12.1,9.1c-3.6,4.2-6.3,9.1-8.1,14.3c-2,6.1-3,12.5-2.9,18.9v3.9C2036.3,2115.9,2037.3,2122.3,2039.4,2128.4z
		 M2165.1,2039.5h36.3l30.9,84.9h1.4l30.7-84.9h36.3v136.1h-24.9v-105.5h-1.2l-31.8,86.9h-19.5l-31.9-86.9h-1.4v105.5h-24.9
		L2165.1,2039.5L2165.1,2039.5z M2332.8,2039.5h80.1v22.6h-54.7v33.8h50.8v21.6h-50.8v35.6h56.5v22.7h-82L2332.8,2039.5z
		 M1726.6,2086.3c0.4,0.8,0.8,1.6,1.4,2.4c0.7,0.9,1.5,1.8,2.5,2.9l2.9,3l1.4-1.3c0.9-0.9,1.8-1.9,2.5-3c0.7-0.9,1.2-1.9,1.6-3
		c0.3-1,0.5-2,0.5-3.1c0-0.9-0.1-1.7-0.4-2.5s-0.8-1.5-1.5-2.1c-1.4-1.1-3.1-1.8-4.9-1.7c-0.9-0.1-1.8,0.1-2.6,0.3
		c-0.8,0.3-1.6,0.7-2.2,1.3c-0.6,0.5-1,1.2-1.3,1.9s-0.4,1.5-0.3,2.3C1726.2,2084.8,1726.3,2085.6,1726.6,2086.3z M1724.4,2119.3
		c-1.3,0.6-2.6,1.4-3.7,2.4c-1,0.8-1.8,1.9-2.4,3.1c-0.6,1.2-0.8,2.4-0.8,3.7c0,1.4,0.4,2.7,1,3.9c0.7,1.3,1.6,2.4,2.8,3.2
		c1.3,1,2.8,1.7,4.4,2.1c1.9,0.5,3.8,0.8,5.7,0.7c1.9,0,3.9-0.2,5.7-0.7c1.9-0.5,3.7-1.1,5.4-2l-15.9-17.3
		C1725.8,2118.6,1725.1,2118.9,1724.4,2119.3z M1809,2059.2l-71.6-41.8l-75.3,40.9V2174H1809V2059.2z M1759.2,2154.1l-3.9-4.2
		c-3.8,2-7.8,3.6-11.9,4.6c-4.5,1.1-9.2,1.7-13.8,1.7c-4.7,0-9.5-0.6-14-1.9c-3.8-1.1-7.5-2.8-10.7-5.2c-2.9-2.2-5.2-4.9-6.9-8.1
		c-1.6-3.3-2.5-7-2.4-10.7c0-2.9,0.5-5.9,1.5-8.7c0.9-2.8,2.3-5.5,4.1-7.8c1.8-2.4,3.9-4.4,6.3-6.2c2-1.4,4.1-2.6,6.4-3.6l-1.1-1.2
		c-1.4-1.6-2.7-3.3-3.9-5c-0.9-1.4-1.7-2.9-2.3-4.5c-0.6-1.4-0.9-2.8-1.2-4.3c-0.2-1.3-0.3-2.6-0.3-3.9c0-3.3,0.6-6.5,1.8-9.6
		c1.2-2.8,3-5.3,5.4-7.3c2.5-2.1,5.3-3.7,8.4-4.6c3.6-1.1,7.3-1.7,11-1.6c3.7-0.1,7.4,0.5,10.9,1.6c3.1,1,5.9,2.5,8.4,4.6
		c2.3,2,4.1,4.4,5.3,7.2c1.3,2.9,1.9,6.1,1.9,9.3c0,2.4-0.3,4.8-1,7.1c-0.6,2.3-1.6,4.5-2.9,6.5c-1.3,2.1-2.9,4-4.7,5.7
		c-1.4,1.3-2.8,2.4-4.4,3.5l10.6,11.7c0.4-1.5,0.8-3,1.1-4.5c0.3-1.6,0.4-3.3,0.4-4.9v-4.2h19.5v8.1c0,4-0.5,7.9-1.5,11.7
		c-1,3.6-2.5,7-4.5,10.2l16.5,18.4L1759.2,2154.1z M2740.5,1866.3h-16.1l-8.8-10.6l-3.5-4.2c-0.8-1-1.4-1.9-1.9-2.5l-0.7,5.8
		l-1.8,11.7H2697l6-40.5h10.7l-1.4,9.3c0,1.3-0.4,2.5-0.7,3.7c-0.2,1.2-0.5,2.3-0.6,3.4l2.9-2.7l4.4-3.9l11.4-9.8h15.6l-14.9,11.7
		l-3.4,2.7c-1,0.8-1.9,1.5-2.7,2l-2.1,1.5l-1.9,1.3c0.9,0.8,1.9,1.8,3.1,3s2.8,2.9,4.7,5L2740.5,1866.3z M1278.1,1900.6l40.5-53.5
		h-148.7l3.9-28.2h121.7l46.4-61.3h-217.6l-33.5,235.7h181.1l46.1-60.6h-160.3l4.5-32.1H1278.1z M1329.2,1993.3h58.2l24.9-174.4
		h112.2l-25.2,174.4h58.2l33.5-235.7h-228.3L1329.2,1993.3z M1928.7,1757.5h-58.2l-24.8,174.4h-91.4l25.1-174.4h-58.2l-33.4,235.7
		H1896l46.1-60.6h-38.3L1928.7,1757.5z M1594.1,1993.3h58.2l33.2-235.7h-57.9L1594.1,1993.3z M2132.6,1900.6l40.5-53.5h-148.8
		l3.9-28.2H2150l46.4-61.3h-217.6l-33.5,235.7h181.1l46.1-60.6h-160.3l4.5-32.1H2132.6z M2375.5,1841h-112.2l12.1-83.5h-58.2
		l-33.5,235.7h58.5l12.7-90.9h112.2l-12.9,90.9h57.9l33.5-235.7h-58.2L2375.5,1841z M2501.1,1757.5l-46.7,61.3h88.3l-24.5,174.4
		h58.2l24.7-174.4h66.9l46.7-61.3H2501.1z M2945.2,1802.5c-3.4-9-8.7-17.2-15.6-23.9c-7.2-7-15.8-12.3-25.3-15.6
		c-11.2-3.8-22.9-5.6-34.8-5.4h-118.1l-47.2,61.3h162c6.8-0.5,13.5,1.7,18.7,6.2c2.1,2.2,3.8,4.7,4.9,7.5c1.1,2.8,1.6,5.8,1.4,8.8
		c0.2,4.2-0.5,8.3-2,12.2c-1.5,3.9-3.8,7.4-6.7,10.4c-3.2,3-6.9,5.4-11,6.9s-8.5,2.2-12.9,1.9h-161.9l-17,120.5h57.9l8.5-60.3h98.4
		c15.1,0.2,30.1-2.3,44.2-7.5c12.3-4.5,23.6-11.5,33.1-20.6c9.2-8.9,16.4-19.7,21.1-31.5c5.1-12.8,7.6-26.4,7.5-40.2
		C2950.5,1822.8,2948.8,1812.3,2945.2,1802.5z"/>
</g>
<g id="бліск">
	<path class="st0" d="M4891,3934.5h-342.8v-386.8h-641.8v-531.9H4891V3934.5z"/>
	<path class="st1" d="M4209.3,3270.5c-0.2-0.2-0.4-0.5-0.5-0.9c-4.2-8.8-10.8-15.7-17.5-22.8c-1.3-1.4-2.6-2.9-3.7-4.4
		c-2-2.5-2.4-5.1-1.5-8.2c2.1-6.7,5.4-12.9,9.7-18.4c3.3-4.2,7-8.1,11.1-11.6c2.8-2.5,4.2-2.6,7.2,0c4.1,3.3,7.7,7.2,10.6,11.6
		c3.1,5.1,3.6,10.3,0.7,15.6c-2.5,4.5-5,8.9-6.7,13.7c-0.1,0.7-0.5,1.3-1.1,1.8c-0.5,0.4-1.2,0.7-1.9,0.7c-0.8,0-1.5-0.3-2.1-0.7
		s-1.1-1.1-1.3-1.8c-0.5-1.1-0.7-2.4-0.6-3.6c0.1-1.2,0.4-2.4,1-3.5c0.8-1.5,1.7-3,2.5-4.5c0.5-0.8,0.8-1.6,1-2.5
		c0.6-2.4-0.1-4.2-1.8-4.9c-1.5-0.6-2.8-0.1-4.3,1.9c-3.5,4.7-4.5,10.3-4.1,15.9c0.3,4.7,2.5,9.1,5.1,13c1.6,2.1,2.6,2.2,3.6-0.1
		c2.6-6.6,7.4-11.9,11.5-17.5c2.4-3.3,4.2-6.6,3.8-10.8c0-0.6,0.1-1.3,0.3-1.9c0.1-0.3,0.4-0.5,0.6-0.5c0.9,0.2,1.5,1.4,1.5,1.6
		c0.8,1.6,1.3,3.2,1.9,4.7c2.2,5.2,1.2,10-2.1,14.5c-3.1,4.2-6.8,7.9-11,11.1c-3.5,2.5-6,6.2-7.1,10.4c-0.2,0.5-0.4,1.1-0.6,1.6
		C4212.2,3272.1,4210.6,3272.3,4209.3,3270.5z M4243.2,3288.9c-9.6-1.8-19.1-3.8-27.8-8.4c-1.1-0.5-2.4-1.2-3.5-0.1
		c-0.4,0.4-0.6,0.9-0.7,1.5c-0.1,0.5,0.1,1.1,0.4,1.6c2.2,4.9,1.7,9.8,0.3,14.7c-1.1,3.9-1.7,7.9-1.7,11.9c-0.2,3.9,0.9,7.8,3.2,11
		c2.4,3.1,7.5,6.1,10,7.5c1.4,0.8,2.3,0.1,0.9-1.2c-3.4-3.6-4.4-7.9-4.3-12.7c0.1-6.8,0.2-13.6-1.6-20.3c-0.6-2.2,0.4-3,2.7-2.2
		c10.5,3.8,17.2,10.6,18.8,21.6c0.1,1,0.1,2-0.2,3c-0.9,2.6-3.5,3.1-5.5,1.2c-0.8-1-1.3-2.1-1.6-3.3c-0.6-1.9-0.5-4-1-6
		c-0.5-2.8-1.7-5.1-4.5-6.4c-0.6-0.4-1.3-0.6-2-0.5s-1.4,0.3-2,0.7c-0.5,0.4-0.8,1-1,1.6c-0.1,0.6-0.1,1.3,0.1,1.8
		c1.4,4.7,2.4,9.5,2.9,14.4c0.9,6.7,4.9,10.8,11.3,13.1c5,1.8,10.3,2.8,15.6,3.1c2.6,0.2,3.8-0.6,4.5-3.2
		c2.4-10.6,3.4-21.2,0.4-31.8C4254.6,3292.2,4253.1,3290.7,4243.2,3288.9z M4280.5,3251.1c-6.6-3.8-13.7-6.7-21.1-8.4
		c-5.3-1.3-10.8-1.8-16.2-1.4c-1.3,0.1-2.5,0.4-3.6,1s-2.1,1.4-2.9,2.4c-1.4,1.7-2.6,3.5-3.7,5.3c-3.9,6.9-8,13.8-13.7,19.7
		c-1.2,1.3-2.6,2.4-3.6,3.6c-1.6,1.9-1.1,3.4,1.4,3.8c0.6,0.1,1.1,0.1,1.7,0.1c4.9-0.5,8.8,1.1,12.8,3.5c4.1,2.6,8.5,4.6,13.1,6.1
		c5.6,1.7,10.6,1.2,14-0.8c4.5-2.5,8.1-6.9,7-6.9c-0.5,0-1,0.1-1.4,0.3c-4.3,1.7-8.4,1.4-12.8,0c-6.9-2-13.6-4.6-20.8-5.1
		c-2.7-0.2-3-1.3-1.3-3.3c6.7-8.1,15.4-12,26.3-10.5c1.3,0.2,2.5,0.6,3.5,1.3c2.4,1.5,2,4.2-0.4,5.3c-1,0.4-2,0.5-3.1,0.4
		c-2.3-0.1-4.6-0.4-6.8-1c-2.2-0.5-4.5-0.1-6.4,1c-1.5,0.9-2.7,2.1-2.5,4.1c0.2,1.6,1.4,2.6,4,2.6c5.1,0.2,10.2,0.8,15.1,1.8
		c6.3,1.2,11.1-1.1,15.2-5.5c3.6-3.9,6.4-8.5,8.3-13.5C4284,3253.9,4283.6,3252.9,4280.5,3251.1z M4230.7,3226.3L4230.7,3226.3
		C4230.7,3226.3,4230.8,3226.3,4230.7,3226.3L4230.7,3226.3z M4170.8,3286.8c2.6-1,5.1-2.1,7.7-3.2c7.9-3.5,15.8-6.6,24.5-7.6
		c0.5-0.1,1-0.2,1.4-0.3c2.2-0.8,2.6-2.3,0.9-3.8c-0.3-0.3-0.7-0.6-1.1-0.9c-4.1-2.2-6.4-5.7-8.1-9.7c-1.7-4.4-4-8.6-6.7-12.5l0,0
		c-8-10.9-20.1-7.4-22.4-6.9c-0.5,0.1-0.9,0.8,0.6,1c5.1,1.1,8.6,4.1,11.5,8.1c4.2,5.2,7.6,11,13.2,15.1c0.3,0.2,0.6,0.4,0.8,0.8
		c0.9,1.3,0.6,2.1-0.8,2.7c-2,0.7-4,1.1-6.1,1.3c-8,1.2-15-1.2-21.1-6c-1.4-1.1-2.6-2.5-3.5-4.2c-0.3-0.5-0.5-1.2-0.4-1.8
		s0.4-1.2,0.8-1.6c0.5-0.5,1.1-0.9,1.8-1c0.7-0.1,1.4,0,2,0.3c1.8,0.8,3.4,2,4.7,3.4c1.1,1.1,1.9,2.2,3.1,3.2
		c2.1,1.7,4.5,2.9,7.4,1.9s3.5-3.6,1.1-5.3c-4.8-3.3-8.6-7.6-12.7-11.4c-1.6-1.6-3.6-2.7-5.8-3.3c-2.2-0.6-4.5-0.7-6.7-0.3
		c-6.3,1.1-12.3,3.4-17.6,7c-2.5,1.6-2.8,2.9-1.6,5.4c1.2,2.6,2.5,5,3.8,7.5c4.6,8.4,11.1,15.7,19,21.1c1.5,1,3.2,1.7,5,1.9
		C4167.3,3287.6,4169.1,3287.4,4170.8,3286.8z M4208.1,3311c-1.3-9.4-2-18.9-0.4-28.4c0.2-1.2,0.5-2.6-0.8-3.4
		c-1.5-0.8-2.7,0-3.7,0.9c-0.2,0.1-0.3,0.3-0.5,0.4c-2.7,2.2-6,3.5-9.5,3.8c-4.7,0.4-9.5,1-14.1,1.9c-4.2,0.9-8,3-10.9,6.1
		s-4.7,7.1-5.3,11.3c-0.2,1.1-0.1,3.4,1.3,1.2l0,0c2.6-4.4,6.8-6.4,11.6-7.9c6.3-2,13-3.6,18.7-7.3c2-1.3,3.3-0.5,3.2,1.9
		c-0.4,10.3-4.9,18.2-14.6,23.2c-1.1,0.6-2.4,1-3.6,1.1c-0.6,0.1-1.3,0-1.9-0.2s-1.1-0.7-1.4-1.2s-0.5-1.2-0.4-1.8s0.3-1.2,0.7-1.7
		c0.9-1.2,2.1-2.1,3.4-2.8c1.7-0.8,3.5-1.6,5.3-2.6c1.2-0.5,2.2-1.3,3-2.3s1.3-2.2,1.5-3.4c0.2-0.7,0.1-1.3-0.1-2
		c-0.2-0.6-0.7-1.2-1.3-1.5c-0.5-0.4-1.2-0.5-1.8-0.5c-0.6,0-1.2,0.3-1.7,0.7c-4.6,3.3-10,5.4-15,7.9c-2,1-3.7,2.4-5,4.2
		s-2.3,3.8-2.7,6c-1.3,6.4-0.2,12.7,1.5,18.9c0.7,2.3,1.9,3.1,4.4,2.8s5.1-0.5,7.6-1c9-1.5,17.7-4.6,25.5-9.3
		c6-3.5,8.1-8.4,6.8-14.8v-0.2H4208.1z M4575.2,3274.8c-3.5-1.4-7.5-2.5-7-6.9c0.9-7.8,19.5,2.2,21.1,2.6
		c8.2,2.3,15.3-4.9,12.1-12.7c-6.2-15.3-46.8-18.8-57.8,1.5c-7.5,13.9,0.9,27.9,16.6,34c7.9,3.1,15.9,4.5,16.5,10.2
		c0.9,8-18.1,0.7-21.7-1.5c-8.3-5-18.3-0.4-16.5,9.3c2.3,12.8,26.7,17.8,42.3,14.9c14.6-2.7,29.5-16.3,20.9-34
		C4596.6,3281.8,4584.5,3278.3,4575.2,3274.8z M4502,3245.3c-10.7,0.2-13.4,7.7-13.4,18.2l0,0v47.5c0,21.2,27.5,21.8,27.5-0.7v-47.5
		C4516.2,3252.5,4512.6,3245.1,4502,3245.3z M4699.1,3306.4c-3.7-5.1-14.6-18.2-16.4-22.5c4.3-5.8,12.2-11.9,16.4-17.8
		c6-8.4,1.4-20-9.4-19.7c-5.1,0.2-20,15.5-29.4,24.7c-2.1,1.2-5.1,0.8-5.6-2.2c0-7.2,0.1-13.3,0.1-21.6c0-11.4,1.9-29.8-6.2-34.5
		c-8.8-5.2-18.5-0.3-20.6,7.8c-1.2,4.6-0.5,64.6-0.5,73.9c0,9.7-1.8,22.8,3.8,28.5c6.3,6.5,18.1,4.5,21.9-2.9c2.5-5,2.1-20.5,2-27.3
		c0-1.4,0.6-1.8,1.4-0.6l2.1,3.3c6.9,10.5,22.6,31,30.6,30.5C4700.6,3325.3,4705.6,3315.3,4699.1,3306.4z M4387.1,3323
		c-11,6.2-29.6,6.3-40.8,0.9c-13.6-6.5-22.9-20.9-22.8-39.6c0-8,0-17.7-0.2-26.4c0-18-3.9-43,11.4-44.8c22-2.5,15,27.8,15.8,39.4
		c3.4-1.2,7.5-7.4,19.3-7.9c7.5-0.3,14.9,1.9,21.1,6.2C4415.7,3268.2,4412.7,3308.6,4387.1,3323z M4382.1,3288.2
		c0-8-6.5-14.5-14.5-14.5s-14.5,6.5-14.5,14.5s6.5,14.5,14.5,14.5S4382.1,3296.2,4382.1,3288.2z M4433,3229v81.4
		c0,22.2,27.3,22.4,27.3,0V3229C4460.3,3206.6,4433,3206.7,4433,3229z"/>
</g>
<g id="лова">
	<rect x="4306.5" y="0.5" class="st0" width="347" height="462"/>
	<path class="st1" d="M4460.4,286.7v-1.9h13.5V172.2h-13.6v-1.9h41.6v1.9h-13.6v112.7h23.4c6,0,10.7-0.7,14.5-2.3s6.5-3.7,8.3-6.6
		s3.2-6.2,3.9-10.2c0.7-4,1-8.3,1-13.2h1.9v34.1L4460.4,286.7L4460.4,286.7z M4456,271.5c0.3-0.3,0.4-0.4,0.4-0.6
		c0-0.1,0-0.3-0.1-0.6c0-0.1-0.1-0.1-0.1-0.3c0-0.1-0.1-0.1-0.3-0.3c0,0,0,0,0-0.1c-0.1-0.1-0.1-0.3-0.1-0.4h0.1l0.1,0.1
		c0,0,0.1,0.3,0.4,0.6c0.3,0.3,0.6,0.7,0.9,1s0.6,0.6,0.9,0.9s0.4,0.4,0.4,0.4l0.1,0.1v0.1c0,0-0.1,0-0.3-0.1l0,0
		c-0.1,0-0.1-0.1-0.3-0.1c-0.1,0-0.1-0.1-0.3-0.1c-0.1-0.1-0.3-0.1-0.4-0.1s-0.3,0.1-0.6,0.4l-3.7,3.6l0.7,0.7
		c0.1,0.1,0.1,0.1,0.1,0.3v0.1h-0.1c0,0-0.1,0-0.1-0.1l-0.7-0.7l-0.7,0.7c-1,0.9-1.9,1.4-2.6,1.4s-1.6-0.3-2.3-1.1
		c-0.4-0.4-0.7-1-0.9-1.4c-0.1-0.4,0-0.7,0.1-1c0.1-0.1,0.3-0.1,0.4-0.1s0.3,0,0.4,0.1c0.1,0.3,0.3,0.4,0,0.9c0,0,0,0.1-0.1,0.1
		c-0.1,0.1-0.1,0.4,0,0.6c0,0.3,0.1,0.4,0.4,0.7s0.7,0.4,1.1,0.4s0.9-0.3,1.3-0.7l1.9-1.7l-1.1-1.1c-0.1-0.1-0.1-0.3-0.3-0.3
		c0-0.1,0-0.1,0-0.1s0.1-0.1,0.1,0c0,0,0.1,0.1,0.3,0.1l1.1,1.3L4456,271.5z M4451.7,265.7c0.6,0.1,1,0.3,1.6,0.6
		c0.4,0.3,0.9,0.6,1.1,1c0.3,0.4,0.4,0.9,0.4,1.3s-0.3,0.7-0.6,1c-0.4,0.4-1.1,0.4-1.9,0.3s-2-0.9-3.6-1.9l-1,0.9
		c-0.3,0.3-0.6,0.6-0.6,0.9s0.1,0.7,0.4,1.1c0.3,0.3,0.6,0.6,0.9,0.7s0.6,0.1,0.7,0c0.3-0.1,0.6-0.3,0.7-0.3s0.3,0.1,0.4,0.3
		c0.1,0.1,0.1,0.3,0.1,0.4s-0.1,0.3-0.3,0.4c-0.3,0.3-0.7,0.3-1.3,0c-0.6-0.3-1-0.7-1.6-1.4s-0.9-1.4-1-2c0-0.6,0.1-1,0.7-1.4
		l3.4-2.6c0.3-0.1,0.4-0.3,0.4-0.6c0-0.1,0-0.3,0-0.4s-0.1-0.1-0.4-0.1c-0.1,0-0.3-0.1-0.3-0.1v-0.1c0,0,0,0,0-0.1
		c0.1-0.1,0.4-0.1,0.7,0c0.3,0.1,0.6,0.3,0.9,0.6c0.3,0.3,0.3,0.6,0.3,1C4452.1,265.1,4452,265.4,4451.7,265.7z M4449.1,267.7
		c1,0.6,1.9,1,2.4,1.1s1.1,0,1.4-0.3s0.4-0.4,0.6-0.9c0.1-0.4,0-0.6-0.3-0.9c-0.3-0.4-0.7-0.6-1.1-0.7s-0.9-0.1-1.1,0.1
		L4449.1,267.7z M4447.4,264.4c-0.4,0.3-1,0.4-1.6,0.6c-0.6,0-1.1,0-1.7-0.1c-0.4-0.1-1-0.4-1.3-0.7c-0.4-0.3-0.7-0.7-1-1.3
		s-0.4-1-0.6-1.4c0-0.4,0.1-0.7,0.4-0.9c0.1-0.1,0.3-0.1,0.4-0.1s0.3,0.1,0.3,0.3c0.1,0.1,0.1,0.3,0.1,0.4s-0.1,0.3-0.1,0.4
		c-0.3,0.3-0.3,0.6-0.3,0.7s0.1,0.4,0.3,0.6c0.4,0.6,1,1,1.7,1s1.6-0.3,2.6-0.9c0.9-0.6,1.4-1.1,1.7-1.9c0.3-0.7,0.1-1.4-0.1-2
		c-0.1-0.3-0.3-0.4-0.6-0.7c-0.1-0.1-0.4-0.3-0.6-0.3c-0.1,0-0.3,0-0.4-0.1c-0.1,0-0.3,0-0.3-0.1v-0.1c0,0,0-0.1,0.1-0.1
		c0.3-0.1,0.7-0.1,1.1,0.1c0.4,0.3,0.9,0.7,1.3,1.4c0.6,1,0.9,2,0.6,3C4449.1,262.9,4448.6,263.8,4447.4,264.4z M4442,256.6
		c0.1,0,0.3-0.1,0.4-0.1s0.3-0.1,0.4-0.1c0.9-0.4,1.6-1,1.9-1.7c0.4-0.7,0.4-1.4,0.1-2.1c-0.1-0.3-0.3-0.6-0.6-0.9
		c-0.1-0.1-0.4-0.4-0.9-0.6c0,0-0.1,0-0.3-0.1c-0.1,0-0.3-0.1-0.3-0.1v-0.1c0,0,0,0,0.1-0.1c0.3-0.1,0.7,0,1.3,0.4s1,1,1.3,1.7
		c0.4,1,0.6,2,0.1,3c-0.3,1-1,1.6-2,2c-0.4,0.1-1,0.3-1.6,0.3s-1,0-1.6-0.1s-1-0.4-1.4-0.9c-0.4-0.3-0.7-0.7-0.9-1.3
		c-0.3-0.9-0.4-1.6-0.1-2.3s0.7-1.3,1.3-1.6c0.1,0,0.3-0.1,0.3,0s0.1,0.1,0.1,0.3L4442,256.6z M4441.5,256.8l-1.4-3.2
		c0-0.1-0.1-0.1-0.1-0.1s-0.1,0-0.3,0c-0.4,0.1-0.9,0.6-1,0.9c-0.1,0.4-0.1,0.9,0,1.3c0.3,0.6,0.6,0.9,1.1,1
		C4440.2,256.9,4440.8,256.9,4441.5,256.8z M4435.8,243.6c-0.6-0.1-0.9-0.6-1.3-0.9c-0.3-0.4-0.6-0.9-0.7-1.4
		c-0.1-0.9-0.1-1.4,0.1-1.9s0.7-0.9,1.4-1l4.2-0.9c0.3,0,0.6-0.1,0.7-0.1c0.1-0.1,0.1-0.1,0.1-0.4c0-0.1,0-0.1,0-0.3
		c0-0.1,0-0.1,0-0.3c0-0.1,0-0.3,0-0.3s0-0.1,0.1-0.1h0.1c0,0,0,0.1,0.1,0.1c0,0,0,0.1,0,0.6s0.1,0.7,0.1,1.1c0,0.3,0.1,0.7,0.3,1.1
		c0.1,0.4,0.1,0.6,0.1,0.6c0,0.1,0,0.1,0,0.1s0,0.1-0.1,0.1h-0.1c0,0-0.1-0.1-0.1-0.3c0,0,0,0,0-0.1c-0.1-0.1-0.1-0.3-0.1-0.4
		c-0.1-0.1-0.1-0.3-0.3-0.3c-0.1,0-0.3,0-0.7,0l-3.7,0.7c-0.6,0.1-1,0.3-1.3,0.6s-0.3,0.7-0.1,1.3c0.1,0.6,0.4,1,1,1.3
		s1.1,0.4,1.9,0.3l3.2-0.6c0.3,0,0.6-0.1,0.7-0.1c0.1-0.1,0.1-0.1,0.1-0.4c0-0.1,0-0.1,0-0.3c0-0.1,0-0.1,0-0.3s0-0.3,0-0.3l0.1-0.1
		h0.1c0,0,0,0.1,0.1,0.1c0,0,0,0.1,0,0.6s0.1,0.7,0.1,1.1c0.1,0.3,0.1,0.7,0.3,1c0,1,0,1.1,0,1.1c0,0.1,0,0.1,0,0.1s0,0.1-0.1,0.1
		h-0.1c0,0-0.1-0.1-0.1-0.3c0,0,0,0,0-0.1c-0.1-0.1-0.1-0.3-0.1-0.4c-0.1-0.1-0.1-0.3-0.3-0.3c-0.1,0-0.3,0-0.7,0l-8.6,1.7
		c-0.3,0-0.6,0.1-0.6,0.1c-0.1,0.1-0.1,0.1-0.1,0.3c0,0.1,0,0.1,0,0.3s0,0.1,0,0.3s0,0.3,0,0.3s0,0.1-0.1,0.1s-0.1-0.1-0.3-0.4v-0.1
		c-0.1-0.4-0.3-0.7-0.4-1.1c-0.1-0.4-0.3-0.6-0.3-0.6v-0.1c0,0,0.1,0,0.1-0.1L4435.8,243.6z M4439.5,230.7c0.4,0.4,0.7,0.9,0.9,1.3
		c0.3,0.4,0.3,1,0.4,1.6c0,0.6-0.1,1-0.3,1.3c-0.3,0.3-0.6,0.4-1.1,0.6c-0.6,0-1.1-0.3-1.6-0.9c-0.4-0.6-1.1-1.9-1.9-3.6h-1.3
		c-0.4,0-0.7,0.1-1,0.4c-0.1,0.3-0.3,0.7-0.3,1.3c0,0.4,0.1,0.7,0.3,1c0.1,0.3,0.4,0.4,0.6,0.4c0.4,0,0.6,0.1,0.7,0.1
		c0.1,0.1,0.1,0.3,0.1,0.4c0,0.1,0,0.3-0.1,0.4c-0.1,0.1-0.3,0.1-0.4,0.1c-0.4,0-0.7-0.3-1-0.7c-0.3-0.6-0.4-1.3-0.4-2.1
		c0-1,0.1-1.7,0.4-2.1s0.7-0.7,1.4-0.7l4.3-0.1c0.3,0,0.6-0.1,0.7-0.1c0.1-0.1,0.3-0.3,0.3-0.4c0-0.1,0-0.3-0.1-0.4
		c-0.6-0.3-0.6-0.3-0.6-0.4V228c0,0,0,0,0.1,0s0.4,0.1,0.6,0.4c0.3,0.3,0.3,0.6,0.3,1s-0.1,0.7-0.3,1
		C4440.1,230.4,4439.8,230.7,4439.5,230.7z M4436.2,230.8c0.4,1.1,0.9,1.9,1.3,2.3c0.4,0.4,0.9,0.7,1.4,0.6c0.4,0,0.7-0.1,0.9-0.3
		c0.3-0.1,0.3-0.4,0.3-0.9s-0.1-0.9-0.6-1.3c-0.3-0.4-0.7-0.6-1-0.6L4436.2,230.8z M4429.3,226.1c-0.3,0-0.4-0.1-0.6-0.3
		c-0.1-0.1-0.3-0.4-0.3-0.6c0-0.3,0.1-0.4,0.3-0.6c0.1-0.1,0.4-0.3,0.6-0.3c0.3,0,0.4,0.1,0.6,0.3c0.1,0.1,0.3,0.4,0.1,0.6
		c0,0.3-0.1,0.4-0.3,0.6C4429.8,226,4429.5,226.1,4429.3,226.1z M4434.4,226c-0.3,0-0.4,0-0.4,0c-0.1,0.1-0.1,0.3-0.1,0.3v0.1
		c0,0,0,0.1,0,0.3l0,0c0,0.1-0.1,0.3-0.1,0.3c-0.1,0-0.1-0.1-0.1-0.4c0-0.1,0-0.3,0-0.3c0-0.4-0.1-0.7-0.3-1.1
		c-0.1-0.4-0.1-0.6-0.1-0.6v-0.1h0.1l6,0.3c0.3,0,0.6,0,0.7,0s0.1-0.1,0.3-0.3c0,0,0-0.1,0.1-0.1c0-0.1,0-0.1,0-0.3
		c0-0.1,0-0.3,0.1-0.3h0.1c0,0,0.1,0,0.1,0.1v0.1c0,0,0,0.1-0.1,0.6c0,0.4-0.1,0.7-0.1,1.1c0,0.4,0,0.7,0,1.1c0,0.4,0,0.6,0,0.6
		c0,0.1,0,0.1,0,0.1s0,0-0.1,0h-0.1c0,0,0-0.1-0.1-0.3c0-0.1,0-0.1,0-0.3s0-0.1-0.1-0.3c0-0.1-0.1-0.3-0.3-0.3
		c-0.1,0-0.3-0.1-0.7-0.1L4434.4,226z M4435.2,219.4c-0.4-0.3-0.9-0.7-1-1.1c-0.3-0.4-0.3-1-0.1-1.4c0-0.4,0.1-0.7,0.4-0.9
		c0.1-0.1,0.4-0.3,0.7-0.3c0.1,0,0.4,0.1,0.4,0.3c0.1,0.1,0.1,0.3,0.1,0.4s0,0.3-0.1,0.3c-0.1,0.1-0.1,0.1-0.3,0.1h-0.1
		c-0.3,0.1-0.6,0.3-0.6,0.6c0,0.4,0.1,0.9,0.4,1.3c0.4,0.4,0.9,0.6,1.6,0.7l3.2,0.4c0.3,0,0.6,0,0.7,0s0.3-0.1,0.3-0.3l0.1-0.1
		c0,0,0-0.1,0.1-0.3c0-0.1,0.1-0.3,0.1-0.3h0.1c0,0,0.1,0,0.1,0.1v0.1c0,0,0,0.1-0.1,0.6c-0.1,0.4-0.1,0.7-0.1,1.1
		c0,0.4-0.1,0.7-0.1,1.1c0,0.4,0,0.6,0,0.6c0,0.1,0,0.1,0,0.1h-0.1c0,0-0.1,0-0.1-0.1c0,0,0-0.1,0-0.3c0-0.1,0-0.1,0-0.3
		c0-0.1,0-0.1,0-0.3s-0.1-0.3-0.3-0.4c-0.1,0-0.3-0.1-0.7-0.1l-3.9-0.6c-0.4,0-0.7,0-1,0s-0.4,0.1-0.6,0.4c0,0,0,0.1-0.1,0.1
		c0,0,0,0.1,0,0.3s0,0.3-0.1,0.3h-0.1c0,0-0.1,0-0.1-0.1s0-0.3,0-0.4c0-0.4-0.1-1-0.1-1.9c0-0.1,0.4-0.3,1.1-0.1
		C4434.8,219.4,4434.9,219.4,4435.2,219.4z M4442.5,210.1l0.4,0.9v0.1c0,0,0,0,0,0.1l0,0h-0.1h-0.1l-9.3-3.4
		c-0.4-0.1-0.7-0.1-0.9-0.1c-0.1,0-0.3,0-0.4,0.1c0,0-0.1,0.1-0.1,0.3l0,0c0,0.1-0.1,0.3-0.1,0.3h-0.1c-0.1,0-0.1-0.1,0-0.6l0,0
		l0.1-0.4c0-0.1,0.1-0.4,0.1-0.6s0.1-0.4,0.1-0.6c0-0.1,0-0.1,0-0.3v-0.1c0,0,0-0.1,0.1-0.1c0,0,0.1,0,0.3,0h0.1l4.7,1.7
		c-0.3-0.3-0.3-0.7-0.4-1.1c0-0.4,0-0.9,0.3-1.4c0.3-1,1-1.6,1.9-2s1.9-0.3,2.9,0c1.1,0.4,2,1.1,2.4,2s0.4,1.9,0,3
		c-0.1,0.4-0.4,0.9-0.7,1.1C4443.4,209.5,4443,209.8,4442.5,210.1z M4441.4,209.2c0.6,0.3,1.1,0.3,1.6,0c0.4-0.1,0.7-0.6,0.9-1.1
		c0.3-0.7,0.3-1.4-0.1-2.1c-0.4-0.6-1.1-1.1-2.3-1.6c-1-0.3-1.9-0.4-2.4-0.3c-0.7,0.1-1.1,0.6-1.4,1.3c-0.3,0.6-0.3,1.1,0,1.6
		c0.1,0.4,0.6,0.7,1.3,1L4441.4,209.2z M4442.5,201.9c-1-0.6-1.6-1.3-1.9-2.3s-0.1-2.1,0.4-3.2c0.3-0.4,0.6-0.9,1-1.1
		c0.4-0.3,0.9-0.6,1.3-0.7c0.6-0.1,1-0.1,1.6-0.1s1,0.1,1.4,0.4c0.4,0.3,0.9,0.6,1.1,1c0.3,0.4,0.6,0.9,0.7,1.4
		c0.1,0.6,0.3,1,0.1,1.6c0,0.4-0.1,1-0.4,1.4c-0.6,1-1.3,1.7-2.3,2C4444.5,202.5,4443.5,202.3,4442.5,201.9z M4443.2,200.5
		c1,0.6,1.9,0.7,2.6,0.7s1.3-0.4,1.6-1.1c0.4-0.7,0.4-1.4,0-2c-0.3-0.7-1-1.3-2.1-1.9c-1-0.6-1.9-0.7-2.6-0.7
		c-0.7,0.1-1.3,0.4-1.7,1.1c-0.3,0.6-0.3,1.3,0,2C4441.7,199.3,4442.4,199.9,4443.2,200.5z M4453,190c0.1,0.6,0.1,1.1,0,1.6
		c-0.1,0.4-0.3,0.9-0.6,1.3c-0.6,0.9-1.4,1.3-2.4,1.4c-1,0.1-1.9-0.1-2.7-0.7c-0.9-0.7-1.4-1.6-1.7-2.6c-0.1-1,0-1.9,0.7-2.7
		c0.3-0.4,0.7-0.7,1.1-1s0.9-0.4,1.3-0.4l-3.4-2.4c-0.1-0.1-0.3-0.1-0.4-0.1s-0.3,0-0.4,0.1c-0.1,0-0.3,0.1-0.4,0.4
		c-0.1,0.1-0.3,0.3-0.4,0.1c-0.1,0,0-0.1,0.1-0.4c0.1-0.1,0.1-0.1,0.1-0.3c0.1-0.3,0.4-0.7,0.6-1c0.1-0.3,0.3-0.6,0.3-0.6l0.1-0.1
		h0.1l7.9,6c0.3,0.1,0.4,0.3,0.7,0.4s0.4,0,0.6,0l0.1-0.1l0.1-0.1c0.1-0.1,0.1-0.1,0.1-0.1h0.1c0.1,0,0,0.3-0.1,0.6
		c0,0.1,0,0.1-0.1,0.1c-0.1,0.3-0.3,0.6-0.3,0.9c0,0.3-0.1,0.6-0.3,0.6c0,0.1-0.1,0.1-0.3,0C4453.9,190.4,4453.4,190.3,4453,190z
		 M4449.8,187.8c-0.6-0.4-1-0.6-1.6-0.4c-0.6,0.1-1,0.4-1.4,0.9c-0.4,0.6-0.6,1.3-0.3,2s0.7,1.4,1.6,2s1.6,1,2.3,1
		c0.7,0,1.3-0.3,1.7-0.9c0.4-0.6,0.6-1.1,0.4-1.7c-0.1-0.6-0.4-1.1-1-1.6L4449.8,187.8z M4457.7,184l-1.6-3.9
		c-0.1-0.1-0.1-0.4-0.3-0.6c-0.1-0.1-0.1-0.3-0.3-0.3c-0.1-0.1-0.1-0.1-0.3-0.1c-0.1,0-0.3,0-0.4,0.1c0,0-0.1,0-0.1,0.1
		c-0.1,0.1-0.3,0.1-0.3,0.1v-0.1c0,0,0-0.1,0.1-0.1c0,0,0.1-0.1,0.3-0.3c0.1-0.1,0.3-0.3,0.4-0.4c0.1-0.1,0.3-0.3,0.4-0.4
		c0.1-0.1,0.1-0.3,0.1-0.3c0.1,0,0.1-0.1,0.1-0.1h0.1c0,0,0,0.1,0,0.3c0,0.1-0.1,0.1-0.1,0.3s0,0.3,0,0.4c0,0.1,0.1,0.4,0.3,0.9
		l2.2,5.3v0.1c1.4,3.6,2,5.4,1.6,5.9c-0.1,0.1-0.1,0.1-0.3,0.1c-0.1,0-0.3,0-0.3-0.1c-0.3-0.3-0.3-0.6-0.1-1.1
		c0.1-0.1,0.1-0.3,0.1-0.4s0-0.3-0.1-0.6c0-0.3-0.1-0.6-0.4-1.1c0,0,0-0.1-0.1-0.3c-0.3-0.7-0.4-1.3-0.6-1.4l-0.1-0.1
		c-0.1,0-0.1-0.1-0.4-0.1l-5.2-2.1c0,0,0,0-0.1,0c-0.4-0.1-0.9-0.3-1.1-0.1c0,0-0.1,0-0.1,0.1h-0.1c-0.1,0-0.1,0.1-0.3,0.1h-0.1
		v-0.1c0-0.1,0.1-0.1,0.1-0.3c0,0,0.1-0.1,0.3-0.3c0.3-0.1,0.4-0.4,0.6-0.6c0.1-0.1,0.4-0.4,0.7-0.7c0.3-0.3,0.4-0.4,0.4-0.6
		c0,0,0.1-0.1,0.3-0.1c0.1,0,0.1,0,0.1,0s0,0.1-0.1,0.4c0,0,0,0.1-0.1,0.1c-0.1,0.1-0.1,0.3-0.1,0.4s0,0.3,0.1,0.3l0.1,0.1
		c0,0,0.1,0.1,0.3,0.1L4457.7,184z M4515.5,219.5v0.1c-1.4-4.4-9.7-6.9-12.9,0c-3.9,8.5,8.9,16.2,12.9,22.9
		c3.3-6.4,16.6-13.6,12.9-22.9C4526.1,214.5,4518.4,213.4,4515.5,219.5z"/>
</g>
<path id="карта" class="st4" d="M0.5,1415.9V0.5h5629v3934H0.5V2295h681.4v-879.1H0.5z"/>
</svg>
